<svg id="Layer_1" data-name="Layer 1" xmlns="http://www.w3.org/2000/svg" xmlns:xlink="http://www.w3.org/1999/xlink" viewBox="0 0 118.75 20"><defs><style>.cls-1{fill:none;}.cls-2{clip-path:url(#clip-path);}.cls-3{fill:#fff;}.cls-4{fill:#fefefe;}.cls-5{fill:#fdfdfd;}.cls-6{fill:#fcfcfc;}.cls-7{fill:#fbfbfb;}.cls-8{fill:#fafafa;}.cls-9{fill:#f9f9f9;}.cls-10{fill:#f8f8f8;}.cls-11{fill:#f7f7f7;}.cls-12{fill:#f6f6f6;}.cls-13{fill:#f5f5f5;}.cls-14{fill:#f4f4f4;}.cls-15{fill:#f3f3f3;}.cls-16{fill:#f2f2f2;}.cls-17{fill:#f1f1f1;}.cls-18{fill:#f0f0f0;}.cls-19{fill:#efefef;}.cls-20{fill:#eee;}.cls-21{fill:#ededed;}.cls-22{fill:#ececec;}.cls-23{fill:#ebebeb;}.cls-24{fill:#eaeaea;}.cls-25{fill:#e9e9e9;}.cls-26{fill:#e8e8e8;}.cls-27{fill:#e7e7e7;}.cls-28{fill:#e6e6e6;}.cls-29{fill:#e5e5e5;}.cls-30{fill:#e4e4e4;}.cls-31{fill:#e3e3e3;}.cls-32{fill:#e2e2e2;}.cls-33{fill:#e1e1e1;}.cls-34{fill:#e0e0e0;}.cls-35{fill:#dfdfdf;}.cls-36{fill:#dedede;}.cls-37{fill:#ddd;}.cls-38{fill:#dcdcdc;}.cls-39{fill:#dbdbdb;}.cls-40{fill:#dadada;}.cls-41{fill:#dad9d9;}.cls-42{fill:#d9d8d8;}.cls-43{fill:#d8d7d7;}.cls-44{fill:#d7d6d6;}.cls-45{fill:#d6d5d5;}.cls-46{fill:#d5d4d4;}.cls-47{fill:#d4d3d3;}.cls-48{fill:#d3d2d2;}.cls-49{fill:#d2d1d1;}.cls-50{fill:#d1d0d0;}.cls-51{fill:#d0cfcf;}.cls-52{fill:#cfcece;}.cls-53{fill:#cecdcd;}.cls-54{fill:#cdcccc;}.cls-55{fill:#cccbcb;}.cls-56{fill:#cbcaca;}.cls-57{fill:#cac9c9;}.cls-58{fill:#c9c8c8;}.cls-59{fill:#c8c7c7;}.cls-60{fill:#c7c6c6;}.cls-61{fill:#c6c5c5;}.cls-62{fill:#c5c4c4;}.cls-63{fill:#c4c3c3;}.cls-64{fill:#c3c2c2;}.cls-65{fill:#c2c1c1;}.cls-66{fill:#c1c0c0;}.cls-67{fill:#c0bfbf;}.cls-68{fill:#bfbebe;}.cls-69{fill:#bebdbd;}.cls-70{fill:#bdbcbc;}.cls-71{fill:#bcbbbb;}.cls-72{fill:#bbbaba;}.cls-73{fill:#bab9b9;}.cls-74{fill:#b9b8b8;}.cls-75{fill:#b8b7b7;}.cls-76{fill:#b7b6b6;}.cls-77{fill:#b6b5b5;}.cls-78{fill:#b5b4b4;}.cls-79{fill:#b4b3b3;}.cls-80{fill:#b3b2b2;}.cls-81{fill:#b2b1b1;}.cls-82{fill:#b1b0b0;}.cls-83{fill:#b0afaf;}.cls-84{fill:#afaeae;}.cls-85{fill:#aeadad;}.cls-86{fill:#adacac;}.cls-87{fill:#acabab;}.cls-88{fill:#abaaaa;}.cls-89{fill:#aaa9a9;}.cls-90{fill:#a9a8a8;}.cls-91{fill:#a8a7a7;}.cls-92{fill:#a7a6a6;}.cls-93{fill:#a6a5a5;}.cls-94{fill:#a5a4a4;}.cls-95{fill:#a4a3a3;}.cls-96{fill:#a3a2a2;}.cls-97{fill:#a2a1a1;}.cls-98{fill:#a1a0a0;}.cls-99{fill:#a09f9f;}.cls-100{fill:#9f9e9e;}.cls-101{fill:#9e9d9d;}.cls-102{fill:#9d9c9c;}.cls-103{fill:#9c9b9b;}.cls-104{fill:#9b9a9a;}.cls-105{fill:#9a9999;}.cls-106{fill:#999898;}.cls-107{fill:#989797;}.cls-108{fill:#979696;}.cls-109{fill:#969595;}.cls-110{fill:#959494;}.cls-111{fill:#949393;}.cls-112{fill:#939292;}.cls-113{fill:#929191;}.cls-114{fill:#919090;}.cls-115{fill:#918e8f;}.cls-116{fill:#908d8e;}.cls-117{fill:#8f8c8d;}.cls-118{fill:#8e8b8c;}.cls-119{fill:#8d8a8b;}.cls-120{fill:#8c898a;}.cls-121{fill:#8b8889;}.cls-122{fill:#8a8788;}.cls-123{fill:#898687;}.cls-124{fill:#888586;}.cls-125{fill:#878485;}.cls-126{fill:#868384;}.cls-127{fill:#858283;}.cls-128{fill:#848182;}.cls-129{fill:#838081;}.cls-130{fill:#827f80;}.cls-131{fill:#817e7f;}.cls-132{fill:#807d7e;}.cls-133{fill:#7f7c7d;}.cls-134{fill:#7e7b7c;}.cls-135{fill:#7d7a7b;}.cls-136{fill:#7c797a;}.cls-137{fill:#7b7879;}.cls-138{fill:#7a7778;}.cls-139{fill:#797677;}.cls-140{fill:#787576;}.cls-141{fill:#777475;}.cls-142{fill:#767374;}.cls-143{fill:#757273;}.cls-144{fill:#747172;}.cls-145{fill:#737071;}.cls-146{fill:#726f70;}.cls-147{fill:#716e6f;}.cls-148{fill:#706d6e;}.cls-149{fill:#6f6c6d;}.cls-150{fill:#6e6b6c;}.cls-151{fill:#6d6a6b;}.cls-152{fill:#6c696a;}.cls-153{fill:#6b6869;}.cls-154{fill:#6a6768;}.cls-155{fill:#696667;}.cls-156{fill:#686566;}.cls-157{fill:#676465;}.cls-158{fill:#666364;}.cls-159{fill:#656263;}.cls-160{fill:#646162;}.cls-161{fill:#636061;}.cls-162{fill:#625f60;}.cls-163{fill:#615e5f;}.cls-164{fill:#605d5e;}.cls-165{fill:#5f5c5d;}.cls-166{fill:#5e5b5c;}.cls-167{fill:#5d5a5b;}.cls-168{fill:#5c595a;}.cls-169{fill:#5b5859;}.cls-170{fill:#5a5758;}.cls-171{fill:#595657;}.cls-172{fill:#585556;}.cls-173{fill:#575455;}.cls-174{fill:#565354;}.cls-175{fill:#555253;}.cls-176{fill:#545152;}.cls-177{fill:#535051;}.cls-178{fill:#524f50;}.cls-179{fill:#514e4f;}.cls-180{fill:#504d4e;}.cls-181{fill:#4f4c4d;}.cls-182{fill:#4e4b4c;}.cls-183{fill:#4d4a4b;}.cls-184{fill:#4c494a;}.cls-185{fill:#4b4849;}.cls-186{fill:#4a4748;}.cls-187{fill:#494647;}.cls-188{fill:#484546;}.cls-189{fill:#484445;}.cls-190{fill:#474344;}.cls-191{fill:#464243;}.cls-192{fill:#454142;}.cls-193{fill:#444041;}.cls-194{fill:#433f40;}.cls-195{fill:#423e3f;}.cls-196{fill:#413d3e;}.cls-197{fill:#403c3d;}.cls-198{fill:#3f3b3c;}.cls-199{fill:#3e3a3b;}.cls-200{fill:#3d393a;}.cls-201{fill:#3c3839;}.cls-202{fill:#3b3738;}.cls-203{fill:#3a3637;}.cls-204{fill:#393536;}.cls-205{fill:#383435;}.cls-206{fill:#373334;}.cls-207{fill:#363233;}.cls-208{fill:#353132;}.cls-209{fill:#343031;}.cls-210{fill:#332f30;}.cls-211{fill:#322e2f;}.cls-212{fill:#312d2e;}.cls-213{fill:#302c2d;}.cls-214{fill:#2f2b2c;}.cls-215{fill:#2e2a2b;}.cls-216{fill:#2d292a;}.cls-217{fill:#2c2829;}.cls-218{fill:#2b2728;}.cls-219{fill:#2a2627;}.cls-220{fill:#292526;}.cls-221{fill:#282425;}.cls-222{fill:#272324;}.cls-223{fill:#262223;}.cls-224{fill:#252122;}.cls-225{fill:#242021;}.cls-226{fill:#231f20;}.cls-227{clip-path:url(#clip-path-2);}.cls-228{clip-path:url(#clip-path-3);}.cls-229{clip-path:url(#clip-path-4);}.cls-230{clip-path:url(#clip-path-5);}</style><clipPath id="clip-path" transform="translate(-900.81 -530.32)"><path class="cls-1" d="M966.58,550.32h-3.83l-1.26-1.5,0,0-1.24-1.32L958,545.15l-2.49-2.6s1.42-.63,2.68-1.21h0C961,544.28,966.58,550.32,966.58,550.32Z"/></clipPath><clipPath id="clip-path-2" transform="translate(-900.81 -530.32)"><path class="cls-1" d="M964.28,542.05h0a3.26,3.26,0,0,1-.79,1.85c-.62-.66-1.22-1.3-1.94-2a3.57,3.57,0,0,0,.39-1.73l2.33,1.93Z"/></clipPath><clipPath id="clip-path-3" transform="translate(-900.81 -530.32)"><path class="cls-1" d="M956.41,537.2c1.26-.58,2.13-1.33,1.52-2.36a1.4,1.4,0,0,0-1-.36,1.23,1.23,0,0,0-.91.36.53.53,0,0,0-.12.14c1.1-1.81,3.94-1.67,4.14.48.39,4.15-5.69,3-9.19,6.46-1.11,1.1-2.42,3.81.43,6.88l-.35-.28a5.92,5.92,0,0,1,1.22-9.83c.58-.26,1.65-.54,2.72-.9C955.39,537.61,955.93,537.42,956.41,537.2Z"/></clipPath><clipPath id="clip-path-4" transform="translate(-900.81 -530.32)"><path class="cls-1" d="M958,545.15l2.18,2.33a4.67,4.67,0,0,1-4.17.5c-3.77-1.77-1.63-4.52-1.47-4.71h0a1.35,1.35,0,0,0,.33,1.83,2.39,2.39,0,0,0,1.54.52A2.47,2.47,0,0,0,958,545.15Z"/></clipPath><clipPath id="clip-path-5" transform="translate(-900.81 -530.32)"><path class="cls-1" d="M956.86,530.32l.44,0c-5,.84-5.08,5.09-2.46,7.39l0,.06c-1.07.36-2.14.64-2.72.9a5.91,5.91,0,0,1-1.3-3.25,4.65,4.65,0,0,1,1.65-3.7A6.51,6.51,0,0,1,956.86,530.32Z"/></clipPath></defs><path d="M964.81,545.3l1.78,2v3s-5.56-6-8.34-9c.87-.4,1.66-.76,1.9-.89l1.42,1.41c.72.75,1.32,1.39,1.94,2l1.17,1.24Z" transform="translate(-900.81 -530.32)"/><g class="cls-2"><path class="cls-3" d="M955.55,541.34v0Z" transform="translate(-900.81 -530.32)"/><rect class="cls-3" x="54.75" y="11.01" width="0.05" height="8.99"/><rect class="cls-4" x="54.8" y="11.01" width="0.05" height="8.99"/><rect class="cls-5" x="54.85" y="11.01" width="0.05" height="8.99"/><rect class="cls-6" x="54.89" y="11.01" width="0.05" height="8.99"/><rect class="cls-7" x="54.94" y="11.01" width="0.05" height="8.99"/><rect class="cls-8" x="54.99" y="11.01" width="0.05" height="8.99"/><rect class="cls-9" x="55.04" y="11.01" width="0.05" height="8.99"/><rect class="cls-10" x="55.09" y="11.01" width="0.05" height="8.99"/><rect class="cls-11" x="55.14" y="11.01" width="0.05" height="8.99"/><rect class="cls-12" x="55.19" y="11.01" width="0.05" height="8.99"/><rect class="cls-13" x="55.24" y="11.01" width="0.05" height="8.99"/><rect class="cls-14" x="55.29" y="11.01" width="0.05" height="8.99"/><rect class="cls-15" x="55.34" y="11.01" width="0.05" height="8.99"/><rect class="cls-16" x="55.39" y="11.01" width="0.05" height="8.99"/><rect class="cls-17" x="55.44" y="11.01" width="0.05" height="8.99"/><rect class="cls-18" x="55.49" y="11.01" width="0.05" height="8.99"/><rect class="cls-19" x="55.53" y="11.01" width="0.05" height="8.99"/><rect class="cls-20" x="55.58" y="11.01" width="0.05" height="8.99"/><rect class="cls-21" x="55.63" y="11.01" width="0.05" height="8.99"/><rect class="cls-22" x="55.68" y="11.01" width="0.05" height="8.99"/><rect class="cls-23" x="55.73" y="11.01" width="0.05" height="8.99"/><rect class="cls-24" x="55.78" y="11.01" width="0.05" height="8.99"/><rect class="cls-25" x="55.83" y="11.01" width="0.05" height="8.99"/><rect class="cls-26" x="55.88" y="11.01" width="0.05" height="8.99"/><rect class="cls-27" x="55.93" y="11.01" width="0.05" height="8.99"/><rect class="cls-28" x="55.98" y="11.01" width="0.05" height="8.99"/><rect class="cls-29" x="56.03" y="11.01" width="0.05" height="8.99"/><rect class="cls-30" x="56.08" y="11.01" width="0.05" height="8.99"/><rect class="cls-31" x="56.13" y="11.01" width="0.05" height="8.99"/><rect class="cls-32" x="56.18" y="11.01" width="0.05" height="8.99"/><rect class="cls-33" x="56.22" y="11.01" width="0.05" height="8.99"/><rect class="cls-34" x="56.27" y="11.01" width="0.05" height="8.99"/><rect class="cls-35" x="56.32" y="11.01" width="0.05" height="8.99"/><rect class="cls-36" x="56.37" y="11.01" width="0.05" height="8.99"/><rect class="cls-37" x="56.42" y="11.01" width="0.05" height="8.99"/><rect class="cls-38" x="56.47" y="11.01" width="0.05" height="8.99"/><rect class="cls-39" x="56.52" y="11.01" width="0.05" height="8.99"/><rect class="cls-40" x="56.57" y="11.01" width="0.05" height="8.99"/><rect class="cls-41" x="56.62" y="11.01" width="0.05" height="8.99"/><rect class="cls-42" x="56.67" y="11.01" width="0.05" height="8.99"/><rect class="cls-43" x="56.72" y="11.01" width="0.05" height="8.99"/><rect class="cls-44" x="56.77" y="11.01" width="0.05" height="8.99"/><rect class="cls-45" x="56.82" y="11.01" width="0.05" height="8.99"/><rect class="cls-46" x="56.86" y="11.01" width="0.05" height="8.99"/><rect class="cls-47" x="56.91" y="11.01" width="0.05" height="8.99"/><rect class="cls-48" x="56.96" y="11.01" width="0.05" height="8.99"/><rect class="cls-49" x="57.01" y="11.01" width="0.05" height="8.99"/><rect class="cls-50" x="57.06" y="11.01" width="0.05" height="8.99"/><rect class="cls-51" x="57.11" y="11.01" width="0.05" height="8.99"/><rect class="cls-52" x="57.16" y="11.01" width="0.05" height="8.99"/><rect class="cls-53" x="57.21" y="11.01" width="0.05" height="8.99"/><rect class="cls-54" x="57.26" y="11.01" width="0.05" height="8.99"/><rect class="cls-55" x="57.31" y="11.01" width="0.05" height="8.99"/><rect class="cls-56" x="57.36" y="11.01" width="0.05" height="8.99"/><rect class="cls-57" x="57.41" y="11.01" width="0.05" height="8.99"/><rect class="cls-58" x="57.46" y="11.01" width="0.05" height="8.99"/><rect class="cls-59" x="57.5" y="11.01" width="0.05" height="8.99"/><rect class="cls-60" x="57.55" y="11.01" width="0.05" height="8.99"/><rect class="cls-61" x="57.6" y="11.01" width="0.05" height="8.99"/><rect class="cls-62" x="57.65" y="11.01" width="0.05" height="8.99"/><rect class="cls-63" x="57.7" y="11.01" width="0.05" height="8.99"/><rect class="cls-64" x="57.75" y="11.01" width="0.05" height="8.99"/><rect class="cls-65" x="57.8" y="11.01" width="0.05" height="8.99"/><rect class="cls-66" x="57.85" y="11.01" width="0.05" height="8.99"/><rect class="cls-67" x="57.9" y="11.01" width="0.05" height="8.99"/><rect class="cls-68" x="57.95" y="11.01" width="0.05" height="8.99"/><rect class="cls-69" x="58" y="11.01" width="0.05" height="8.99"/><rect class="cls-70" x="58.05" y="11.01" width="0.05" height="8.99"/><rect class="cls-71" x="58.1" y="11.01" width="0.05" height="8.99"/><rect class="cls-72" x="58.14" y="11.01" width="0.05" height="8.99"/><rect class="cls-73" x="58.19" y="11.01" width="0.05" height="8.99"/><rect class="cls-74" x="58.24" y="11.01" width="0.05" height="8.99"/><rect class="cls-75" x="58.29" y="11.01" width="0.05" height="8.99"/><rect class="cls-76" x="58.34" y="11.01" width="0.05" height="8.99"/><rect class="cls-77" x="58.39" y="11.01" width="0.05" height="8.99"/><rect class="cls-78" x="58.44" y="11.01" width="0.05" height="8.99"/><rect class="cls-79" x="58.49" y="11.01" width="0.05" height="8.99"/><rect class="cls-80" x="58.54" y="11.01" width="0.05" height="8.99"/><rect class="cls-81" x="58.59" y="11.01" width="0.05" height="8.99"/><rect class="cls-82" x="58.64" y="11.01" width="0.05" height="8.99"/><rect class="cls-83" x="58.69" y="11.01" width="0.05" height="8.99"/><rect class="cls-84" x="58.74" y="11.01" width="0.05" height="8.99"/><rect class="cls-85" x="58.78" y="11.01" width="0.05" height="8.99"/><rect class="cls-86" x="58.83" y="11.01" width="0.05" height="8.99"/><rect class="cls-87" x="58.88" y="11.01" width="0.05" height="8.99"/><rect class="cls-88" x="58.93" y="11.01" width="0.05" height="8.99"/><rect class="cls-89" x="58.98" y="11.01" width="0.05" height="8.99"/><rect class="cls-90" x="59.03" y="11.01" width="0.05" height="8.99"/><rect class="cls-91" x="59.08" y="11.01" width="0.05" height="8.99"/><rect class="cls-92" x="59.13" y="11.01" width="0.05" height="8.99"/><rect class="cls-93" x="59.18" y="11.01" width="0.05" height="8.99"/><rect class="cls-94" x="59.23" y="11.01" width="0.05" height="8.99"/><rect class="cls-95" x="59.28" y="11.01" width="0.05" height="8.99"/><rect class="cls-96" x="59.33" y="11.01" width="0.05" height="8.99"/><rect class="cls-97" x="59.38" y="11.01" width="0.05" height="8.99"/><rect class="cls-98" x="59.42" y="11.01" width="0.05" height="8.99"/><rect class="cls-99" x="59.47" y="11.01" width="0.05" height="8.99"/><rect class="cls-100" x="59.52" y="11.01" width="0.05" height="8.99"/><rect class="cls-101" x="59.57" y="11.01" width="0.05" height="8.99"/><rect class="cls-102" x="59.62" y="11.01" width="0.05" height="8.99"/><rect class="cls-103" x="59.67" y="11.01" width="0.05" height="8.99"/><rect class="cls-104" x="59.72" y="11.01" width="0.05" height="8.99"/><rect class="cls-105" x="59.77" y="11.01" width="0.05" height="8.99"/><rect class="cls-106" x="59.82" y="11.01" width="0.05" height="8.99"/><rect class="cls-107" x="59.87" y="11.01" width="0.05" height="8.99"/><rect class="cls-108" x="59.92" y="11.01" width="0.05" height="8.99"/><rect class="cls-109" x="59.97" y="11.01" width="0.05" height="8.99"/><rect class="cls-110" x="60.02" y="11.01" width="0.05" height="8.99"/><rect class="cls-111" x="60.06" y="11.01" width="0.05" height="8.99"/><rect class="cls-112" x="60.11" y="11.01" width="0.05" height="8.99"/><rect class="cls-113" x="60.16" y="11.01" width="0.05" height="8.99"/><rect class="cls-114" x="60.21" y="11.01" width="0.05" height="8.99"/><rect class="cls-115" x="60.26" y="11.01" width="0.05" height="8.99"/><rect class="cls-116" x="60.31" y="11.01" width="0.05" height="8.99"/><rect class="cls-117" x="60.36" y="11.01" width="0.05" height="8.99"/><rect class="cls-118" x="60.41" y="11.01" width="0.05" height="8.99"/><rect class="cls-119" x="60.46" y="11.01" width="0.05" height="8.99"/><rect class="cls-120" x="60.51" y="11.01" width="0.05" height="8.99"/><rect class="cls-121" x="60.56" y="11.01" width="0.05" height="8.99"/><rect class="cls-122" x="60.61" y="11.01" width="0.05" height="8.99"/><rect class="cls-123" x="60.66" y="11.01" width="0.05" height="8.99"/><rect class="cls-124" x="60.7" y="11.01" width="0.05" height="8.99"/><rect class="cls-125" x="60.75" y="11.01" width="0.05" height="8.99"/><rect class="cls-126" x="60.8" y="11.01" width="0.05" height="8.99"/><rect class="cls-127" x="60.85" y="11.01" width="0.05" height="8.99"/><rect class="cls-128" x="60.9" y="11.01" width="0.05" height="8.99"/><rect class="cls-129" x="60.95" y="11.01" width="0.05" height="8.99"/><rect class="cls-130" x="61" y="11.01" width="0.05" height="8.99"/><rect class="cls-131" x="61.05" y="11.01" width="0.05" height="8.99"/><rect class="cls-132" x="61.1" y="11.01" width="0.05" height="8.99"/><rect class="cls-133" x="61.15" y="11.01" width="0.05" height="8.99"/><rect class="cls-134" x="61.2" y="11.01" width="0.05" height="8.99"/><rect class="cls-135" x="61.25" y="11.01" width="0.05" height="8.99"/><rect class="cls-136" x="61.3" y="11.01" width="0.05" height="8.99"/><rect class="cls-137" x="61.35" y="11.01" width="0.05" height="8.99"/><rect class="cls-138" x="61.39" y="11.01" width="0.05" height="8.99"/><rect class="cls-139" x="61.44" y="11.01" width="0.05" height="8.99"/><rect class="cls-140" x="61.49" y="11.01" width="0.05" height="8.99"/><rect class="cls-141" x="61.54" y="11.01" width="0.05" height="8.99"/><rect class="cls-142" x="61.59" y="11.01" width="0.05" height="8.99"/><rect class="cls-143" x="61.64" y="11.01" width="0.05" height="8.99"/><rect class="cls-144" x="61.69" y="11.01" width="0.05" height="8.99"/><rect class="cls-145" x="61.74" y="11.01" width="0.05" height="8.99"/><rect class="cls-146" x="61.79" y="11.01" width="0.05" height="8.99"/><rect class="cls-147" x="61.84" y="11.01" width="0.05" height="8.99"/><rect class="cls-148" x="61.89" y="11.01" width="0.05" height="8.99"/><rect class="cls-149" x="61.94" y="11.01" width="0.05" height="8.99"/><rect class="cls-150" x="61.99" y="11.01" width="0.05" height="8.99"/><rect class="cls-151" x="62.03" y="11.01" width="0.05" height="8.99"/><rect class="cls-152" x="62.08" y="11.01" width="0.05" height="8.99"/><rect class="cls-153" x="62.13" y="11.01" width="0.05" height="8.99"/><rect class="cls-154" x="62.18" y="11.01" width="0.05" height="8.99"/><rect class="cls-155" x="62.23" y="11.01" width="0.05" height="8.99"/><rect class="cls-156" x="62.28" y="11.01" width="0.05" height="8.99"/><rect class="cls-157" x="62.33" y="11.01" width="0.05" height="8.99"/><rect class="cls-158" x="62.38" y="11.01" width="0.05" height="8.99"/><rect class="cls-159" x="62.43" y="11.01" width="0.05" height="8.99"/><rect class="cls-160" x="62.48" y="11.01" width="0.05" height="8.99"/><rect class="cls-161" x="62.53" y="11.01" width="0.05" height="8.99"/><rect class="cls-162" x="62.58" y="11.01" width="0.05" height="8.99"/><rect class="cls-163" x="62.63" y="11.01" width="0.05" height="8.99"/><rect class="cls-164" x="62.67" y="11.01" width="0.05" height="8.99"/><rect class="cls-165" x="62.72" y="11.01" width="0.05" height="8.99"/><rect class="cls-166" x="62.77" y="11.01" width="0.05" height="8.99"/><rect class="cls-167" x="62.82" y="11.01" width="0.05" height="8.99"/><rect class="cls-168" x="62.87" y="11.01" width="0.05" height="8.99"/><rect class="cls-169" x="62.92" y="11.01" width="0.05" height="8.99"/><rect class="cls-170" x="62.97" y="11.01" width="0.05" height="8.99"/><rect class="cls-171" x="63.02" y="11.01" width="0.05" height="8.99"/><rect class="cls-172" x="63.07" y="11.01" width="0.05" height="8.99"/><rect class="cls-173" x="63.12" y="11.01" width="0.05" height="8.99"/><rect class="cls-174" x="63.17" y="11.01" width="0.05" height="8.99"/><rect class="cls-175" x="63.22" y="11.01" width="0.05" height="8.99"/><rect class="cls-176" x="63.27" y="11.01" width="0.05" height="8.99"/><rect class="cls-177" x="63.31" y="11.01" width="0.05" height="8.99"/><rect class="cls-178" x="63.36" y="11.01" width="0.05" height="8.99"/><rect class="cls-179" x="63.41" y="11.01" width="0.05" height="8.99"/><rect class="cls-180" x="63.46" y="11.01" width="0.05" height="8.99"/><rect class="cls-181" x="63.51" y="11.01" width="0.05" height="8.99"/><rect class="cls-182" x="63.56" y="11.01" width="0.05" height="8.99"/><rect class="cls-183" x="63.61" y="11.01" width="0.05" height="8.99"/><rect class="cls-184" x="63.66" y="11.01" width="0.05" height="8.99"/><rect class="cls-185" x="63.71" y="11.01" width="0.05" height="8.99"/><rect class="cls-186" x="63.76" y="11.01" width="0.05" height="8.99"/><rect class="cls-187" x="63.81" y="11.01" width="0.05" height="8.99"/><rect class="cls-188" x="63.86" y="11.01" width="0.05" height="8.99"/><rect class="cls-189" x="63.91" y="11.01" width="0.05" height="8.99"/><rect class="cls-190" x="63.95" y="11.01" width="0.05" height="8.99"/><rect class="cls-191" x="64" y="11.01" width="0.05" height="8.99"/><rect class="cls-192" x="64.05" y="11.01" width="0.05" height="8.99"/><rect class="cls-193" x="64.1" y="11.01" width="0.05" height="8.99"/><rect class="cls-194" x="64.15" y="11.01" width="0.05" height="8.99"/><rect class="cls-195" x="64.2" y="11.01" width="0.05" height="8.99"/><rect class="cls-196" x="64.25" y="11.01" width="0.05" height="8.99"/><rect class="cls-197" x="64.3" y="11.01" width="0.05" height="8.99"/><rect class="cls-198" x="64.35" y="11.01" width="0.05" height="8.99"/><rect class="cls-199" x="64.4" y="11.01" width="0.05" height="8.99"/><rect class="cls-200" x="64.45" y="11.01" width="0.05" height="8.99"/><rect class="cls-201" x="64.5" y="11.01" width="0.05" height="8.99"/><rect class="cls-202" x="64.55" y="11.01" width="0.05" height="8.99"/><rect class="cls-203" x="64.59" y="11.01" width="0.05" height="8.99"/><rect class="cls-204" x="64.64" y="11.01" width="0.05" height="8.99"/><rect class="cls-205" x="64.69" y="11.01" width="0.05" height="8.99"/><rect class="cls-206" x="64.74" y="11.01" width="0.05" height="8.99"/><rect class="cls-207" x="64.79" y="11.01" width="0.05" height="8.99"/><rect class="cls-208" x="64.84" y="11.01" width="0.05" height="8.99"/><rect class="cls-209" x="64.89" y="11.01" width="0.05" height="8.99"/><rect class="cls-210" x="64.94" y="11.01" width="0.05" height="8.99"/><rect class="cls-211" x="64.99" y="11.01" width="0.05" height="8.99"/><rect class="cls-212" x="65.04" y="11.01" width="0.05" height="8.99"/><rect class="cls-213" x="65.09" y="11.01" width="0.05" height="8.99"/><rect class="cls-214" x="65.14" y="11.01" width="0.05" height="8.99"/><rect class="cls-215" x="65.19" y="11.01" width="0.05" height="8.99"/><rect class="cls-216" x="65.23" y="11.01" width="0.05" height="8.99"/><rect class="cls-217" x="65.28" y="11.01" width="0.05" height="8.99"/><rect class="cls-218" x="65.33" y="11.01" width="0.05" height="8.99"/><rect class="cls-219" x="65.38" y="11.01" width="0.05" height="8.99"/><rect class="cls-220" x="65.43" y="11.01" width="0.05" height="8.99"/><rect class="cls-221" x="65.48" y="11.01" width="0.05" height="8.99"/><rect class="cls-222" x="65.53" y="11.01" width="0.05" height="8.99"/><rect class="cls-223" x="65.58" y="11.01" width="0.05" height="8.99"/><rect class="cls-224" x="65.63" y="11.01" width="0.05" height="8.99"/><rect class="cls-225" x="65.68" y="11.01" width="0.05" height="8.99"/><rect class="cls-226" x="65.73" y="11.01" width="0.05" height="8.99"/><path class="cls-226" d="M966.58,550.32v0Z" transform="translate(-900.81 -530.32)"/></g><path d="M964.28,542.05l1.84-1.12a6.7,6.7,0,0,1-1.45,4.22l-1.17-1.24a3.26,3.26,0,0,0,.79-1.85Z" transform="translate(-900.81 -530.32)"/><polygon points="65.31 10.6 63.48 11.73 63.47 11.73 61.14 9.81 63.09 9.01 65.31 10.6"/><g class="cls-227"><polygon class="cls-3" points="60.75 13.19 61.38 13.59 60.75 13.59 60.75 13.19"/><polygon class="cls-3" points="60.75 13.17 61.4 13.59 61.38 13.59 60.75 13.19 60.75 13.17"/><polygon class="cls-4" points="60.75 13.16 61.43 13.59 61.4 13.59 60.75 13.17 60.75 13.16"/><polygon class="cls-5" points="60.75 13.14 61.45 13.59 61.43 13.59 60.75 13.16 60.75 13.14"/><polygon class="cls-6" points="60.75 13.13 61.47 13.59 61.45 13.59 60.75 13.14 60.75 13.13"/><polygon class="cls-7" points="60.75 13.11 61.5 13.59 61.47 13.59 60.75 13.13 60.75 13.11"/><polygon class="cls-8" points="60.75 13.1 61.52 13.59 61.5 13.59 60.75 13.11 60.75 13.1"/><polygon class="cls-9" points="60.75 13.08 61.54 13.59 61.52 13.59 60.75 13.1 60.75 13.08"/><polygon class="cls-10" points="60.75 13.07 61.57 13.59 61.54 13.59 60.75 13.08 60.75 13.07"/><polygon class="cls-11" points="60.75 13.05 61.59 13.59 61.57 13.59 60.75 13.07 60.75 13.05"/><polygon class="cls-12" points="60.75 13.04 61.62 13.59 61.59 13.59 60.75 13.05 60.75 13.04"/><polygon class="cls-13" points="60.75 13.02 61.64 13.59 61.62 13.59 60.75 13.04 60.75 13.02"/><polygon class="cls-14" points="60.75 13.01 61.66 13.59 61.64 13.59 60.75 13.02 60.75 13.01"/><polygon class="cls-15" points="60.75 12.99 61.69 13.59 61.66 13.59 60.75 13.01 60.75 12.99"/><polygon class="cls-16" points="60.75 12.98 61.71 13.59 61.69 13.59 60.75 12.99 60.75 12.98"/><polygon class="cls-17" points="60.75 12.96 61.73 13.59 61.71 13.59 60.75 12.98 60.75 12.96"/><polygon class="cls-18" points="60.75 12.95 61.76 13.59 61.73 13.59 60.75 12.96 60.75 12.95"/><polygon class="cls-19" points="60.75 12.93 61.78 13.59 61.76 13.59 60.75 12.95 60.75 12.93"/><polygon class="cls-20" points="60.75 12.92 61.8 13.59 61.78 13.59 60.75 12.93 60.75 12.92"/><polygon class="cls-21" points="60.75 12.9 61.83 13.59 61.8 13.59 60.75 12.92 60.75 12.9"/><polygon class="cls-22" points="60.75 12.89 61.85 13.59 61.83 13.59 60.75 12.9 60.75 12.89"/><polygon class="cls-23" points="60.75 12.87 61.88 13.59 61.85 13.59 60.75 12.89 60.75 12.87"/><polygon class="cls-24" points="60.75 12.86 61.9 13.59 61.88 13.59 60.75 12.87 60.75 12.86"/><polygon class="cls-25" points="60.75 12.84 61.92 13.59 61.9 13.59 60.75 12.86 60.75 12.84"/><polygon class="cls-26" points="60.75 12.83 61.95 13.59 61.92 13.59 60.75 12.84 60.75 12.83"/><polygon class="cls-27" points="60.75 12.81 61.97 13.59 61.95 13.59 60.75 12.83 60.75 12.81"/><polygon class="cls-28" points="60.75 12.8 61.99 13.59 61.97 13.59 60.75 12.81 60.75 12.8"/><polygon class="cls-29" points="60.75 12.78 62.02 13.59 61.99 13.59 60.75 12.8 60.75 12.78"/><polygon class="cls-30" points="60.75 12.77 62.04 13.59 62.02 13.59 60.75 12.78 60.75 12.77"/><polygon class="cls-31" points="60.75 12.75 62.06 13.59 62.04 13.59 60.75 12.77 60.75 12.75"/><polygon class="cls-32" points="60.75 12.74 62.09 13.59 62.06 13.59 60.75 12.75 60.75 12.74"/><polygon class="cls-33" points="60.75 12.72 62.11 13.59 62.09 13.59 60.75 12.74 60.75 12.72"/><polygon class="cls-34" points="60.75 12.71 62.13 13.59 62.11 13.59 60.75 12.72 60.75 12.71"/><polygon class="cls-35" points="60.75 12.69 62.16 13.59 62.13 13.59 60.75 12.71 60.75 12.69"/><polygon class="cls-36" points="60.75 12.68 62.18 13.59 62.16 13.59 60.75 12.69 60.75 12.68"/><polygon class="cls-37" points="60.75 12.66 62.2 13.59 62.18 13.59 60.75 12.68 60.75 12.66"/><polygon class="cls-38" points="60.75 12.65 62.23 13.59 62.2 13.59 60.75 12.66 60.75 12.65"/><polygon class="cls-39" points="60.75 12.63 62.25 13.59 62.23 13.59 60.75 12.65 60.75 12.63"/><polygon class="cls-40" points="60.75 12.62 62.28 13.59 62.25 13.59 60.75 12.63 60.75 12.62"/><polygon class="cls-41" points="60.75 12.6 62.3 13.59 62.28 13.59 60.75 12.62 60.75 12.6"/><polygon class="cls-42" points="60.75 12.59 62.32 13.59 62.3 13.59 60.75 12.6 60.75 12.59"/><polygon class="cls-43" points="60.75 12.57 62.35 13.59 62.32 13.59 60.75 12.59 60.75 12.57"/><polygon class="cls-44" points="60.75 12.56 62.37 13.59 62.35 13.59 60.75 12.57 60.75 12.56"/><polygon class="cls-45" points="60.75 12.54 62.39 13.59 62.37 13.59 60.75 12.56 60.75 12.54"/><polygon class="cls-46" points="60.75 12.53 62.42 13.59 62.39 13.59 60.75 12.54 60.75 12.53"/><polygon class="cls-47" points="60.75 12.51 62.44 13.59 62.42 13.59 60.75 12.53 60.75 12.51"/><polygon class="cls-48" points="60.75 12.5 62.47 13.59 62.44 13.59 60.75 12.51 60.75 12.5"/><polygon class="cls-49" points="60.75 12.48 62.49 13.59 62.47 13.59 60.75 12.5 60.75 12.48"/><polygon class="cls-50" points="60.75 12.47 62.51 13.59 62.49 13.59 60.75 12.48 60.75 12.47"/><polygon class="cls-51" points="60.75 12.45 62.54 13.59 62.51 13.59 60.75 12.47 60.75 12.45"/><polygon class="cls-52" points="60.75 12.44 62.56 13.59 62.54 13.59 60.75 12.45 60.75 12.44"/><polygon class="cls-53" points="60.75 12.42 62.58 13.59 62.56 13.59 60.75 12.44 60.75 12.42"/><polygon class="cls-54" points="60.75 12.41 62.61 13.59 62.58 13.59 60.75 12.42 60.75 12.41"/><polygon class="cls-55" points="60.75 12.39 62.63 13.59 62.61 13.59 60.75 12.41 60.75 12.39"/><polygon class="cls-56" points="60.75 12.38 62.65 13.59 62.63 13.59 60.75 12.39 60.75 12.38"/><polygon class="cls-57" points="60.75 12.36 62.68 13.59 62.65 13.59 60.75 12.38 60.75 12.36"/><polygon class="cls-58" points="60.75 12.35 62.7 13.59 62.68 13.59 60.75 12.36 60.75 12.35"/><polygon class="cls-59" points="60.75 12.33 62.73 13.59 62.7 13.59 60.75 12.35 60.75 12.33"/><polygon class="cls-60" points="60.75 12.32 62.75 13.59 62.73 13.59 60.75 12.33 60.75 12.32"/><polygon class="cls-61" points="60.75 12.3 62.77 13.59 62.75 13.59 60.75 12.32 60.75 12.3"/><polygon class="cls-62" points="60.75 12.29 62.8 13.59 62.77 13.59 60.75 12.3 60.75 12.29"/><polygon class="cls-63" points="60.75 12.27 62.82 13.59 62.8 13.59 60.75 12.29 60.75 12.27"/><polygon class="cls-64" points="60.75 12.26 62.84 13.59 62.82 13.59 60.75 12.27 60.75 12.26"/><polygon class="cls-65" points="60.75 12.24 62.87 13.59 62.84 13.59 60.75 12.26 60.75 12.24"/><polygon class="cls-66" points="60.75 12.23 62.89 13.59 62.87 13.59 60.75 12.24 60.75 12.23"/><polygon class="cls-67" points="60.75 12.21 62.91 13.59 62.89 13.59 60.75 12.23 60.75 12.21"/><polygon class="cls-68" points="60.75 12.2 62.94 13.59 62.91 13.59 60.75 12.21 60.75 12.2"/><polygon class="cls-69" points="60.75 12.18 62.96 13.59 62.94 13.59 60.75 12.2 60.75 12.18"/><polygon class="cls-70" points="60.75 12.17 62.98 13.59 62.96 13.59 60.75 12.18 60.75 12.17"/><polygon class="cls-71" points="60.75 12.15 63.01 13.59 62.98 13.59 60.75 12.17 60.75 12.15"/><polygon class="cls-72" points="60.75 12.14 63.03 13.59 63.01 13.59 60.75 12.15 60.75 12.14"/><polygon class="cls-73" points="60.75 12.12 63.06 13.59 63.03 13.59 60.75 12.14 60.75 12.12"/><polygon class="cls-74" points="60.75 12.11 63.08 13.59 63.06 13.59 60.75 12.12 60.75 12.11"/><polygon class="cls-75" points="60.75 12.09 63.1 13.59 63.08 13.59 60.75 12.11 60.75 12.09"/><polygon class="cls-76" points="60.75 12.08 63.13 13.59 63.1 13.59 60.75 12.09 60.75 12.08"/><polygon class="cls-77" points="60.75 12.06 63.15 13.59 63.13 13.59 60.75 12.08 60.75 12.06"/><polygon class="cls-78" points="60.75 12.05 63.17 13.59 63.15 13.59 60.75 12.06 60.75 12.05"/><polygon class="cls-79" points="60.75 12.03 63.2 13.59 63.17 13.59 60.75 12.05 60.75 12.03"/><polygon class="cls-80" points="60.75 12.02 63.22 13.59 63.2 13.59 60.75 12.03 60.75 12.02"/><polygon class="cls-81" points="60.75 12 63.24 13.59 63.22 13.59 60.75 12.02 60.75 12"/><polygon class="cls-82" points="60.75 11.99 63.27 13.59 63.24 13.59 60.75 12 60.75 11.99"/><polygon class="cls-83" points="60.75 11.97 63.29 13.59 63.27 13.59 60.75 11.99 60.75 11.97"/><polygon class="cls-84" points="60.75 11.96 63.32 13.59 63.29 13.59 60.75 11.97 60.75 11.96"/><polygon class="cls-85" points="60.75 11.94 63.34 13.59 63.32 13.59 60.75 11.96 60.75 11.94"/><polygon class="cls-86" points="60.75 11.93 63.36 13.59 63.34 13.59 60.75 11.94 60.75 11.93"/><polygon class="cls-87" points="60.75 11.91 63.39 13.59 63.36 13.59 60.75 11.93 60.75 11.91"/><polygon class="cls-88" points="60.75 11.9 63.41 13.59 63.39 13.59 60.75 11.91 60.75 11.9"/><polygon class="cls-89" points="60.75 11.88 63.43 13.59 63.41 13.59 60.75 11.9 60.75 11.88"/><polygon class="cls-90" points="60.75 11.87 63.46 13.59 63.43 13.59 60.75 11.88 60.75 11.87"/><polygon class="cls-91" points="60.75 11.85 63.48 13.58 63.48 13.59 63.46 13.59 60.75 11.87 60.75 11.85"/><polygon class="cls-92" points="60.75 11.84 63.48 13.57 63.48 13.58 60.75 11.85 60.75 11.84"/><polygon class="cls-93" points="60.75 11.82 63.48 13.55 63.48 13.57 60.75 11.84 60.75 11.82"/><polygon class="cls-94" points="60.75 11.81 63.48 13.54 63.48 13.55 60.75 11.82 60.75 11.81"/><polygon class="cls-95" points="60.75 11.79 63.48 13.52 63.48 13.54 60.75 11.81 60.75 11.79"/><polygon class="cls-96" points="60.75 11.78 63.48 13.51 63.48 13.52 60.75 11.79 60.75 11.78"/><polygon class="cls-97" points="60.75 11.76 63.48 13.49 63.48 13.51 60.75 11.78 60.75 11.76"/><polygon class="cls-98" points="60.75 11.75 63.48 13.48 63.48 13.49 60.75 11.76 60.75 11.75"/><polygon class="cls-99" points="60.75 11.73 63.48 13.46 63.48 13.48 60.75 11.75 60.75 11.73"/><polygon class="cls-100" points="60.75 11.72 63.48 13.45 63.48 13.46 60.75 11.73 60.75 11.72"/><polygon class="cls-101" points="60.75 11.7 63.48 13.43 63.48 13.45 60.75 11.72 60.75 11.7"/><polygon class="cls-102" points="60.75 11.69 63.48 13.42 63.48 13.43 60.75 11.7 60.75 11.69"/><polygon class="cls-103" points="60.75 11.67 63.48 13.4 63.48 13.42 60.75 11.69 60.75 11.67"/><polygon class="cls-104" points="60.75 11.66 63.48 13.39 63.48 13.4 60.75 11.67 60.75 11.66"/><polygon class="cls-105" points="60.75 11.64 63.48 13.37 63.48 13.39 60.75 11.66 60.75 11.64"/><polygon class="cls-106" points="60.75 11.63 63.48 13.36 63.48 13.37 60.75 11.64 60.75 11.63"/><polygon class="cls-107" points="60.75 11.61 63.48 13.34 63.48 13.36 60.75 11.63 60.75 11.61"/><polygon class="cls-108" points="60.75 11.6 63.48 13.33 63.48 13.34 60.75 11.61 60.75 11.6"/><polygon class="cls-109" points="60.75 11.58 63.48 13.31 63.48 13.33 60.75 11.6 60.75 11.58"/><polygon class="cls-110" points="60.75 11.57 63.48 13.3 63.48 13.31 60.75 11.58 60.75 11.57"/><polygon class="cls-111" points="60.75 11.55 63.48 13.28 63.48 13.3 60.75 11.57 60.75 11.55"/><polygon class="cls-112" points="60.75 11.54 63.48 13.27 63.48 13.28 60.75 11.55 60.75 11.54"/><polygon class="cls-113" points="60.75 11.52 63.48 13.25 63.48 13.27 60.75 11.54 60.75 11.52"/><polygon class="cls-114" points="60.75 11.51 63.48 13.24 63.48 13.25 60.75 11.52 60.75 11.51"/><polygon class="cls-115" points="60.75 11.49 63.48 13.22 63.48 13.24 60.75 11.51 60.75 11.49"/><polygon class="cls-116" points="60.75 11.48 63.48 13.21 63.48 13.22 60.75 11.49 60.75 11.48"/><polygon class="cls-117" points="60.75 11.46 63.48 13.19 63.48 13.21 60.75 11.48 60.75 11.46"/><polygon class="cls-118" points="60.75 11.45 63.48 13.18 63.48 13.19 60.75 11.46 60.75 11.45"/><polygon class="cls-119" points="60.75 11.43 63.48 13.16 63.48 13.18 60.75 11.45 60.75 11.43"/><polygon class="cls-120" points="60.75 11.42 63.48 13.15 63.48 13.16 60.75 11.43 60.75 11.42"/><polygon class="cls-121" points="60.75 11.4 63.48 13.13 63.48 13.15 60.75 11.42 60.75 11.4"/><polygon class="cls-122" points="60.75 11.39 63.48 13.12 63.48 13.13 60.75 11.4 60.75 11.39"/><polygon class="cls-123" points="60.75 11.37 63.48 13.1 63.48 13.12 60.75 11.39 60.75 11.37"/><polygon class="cls-124" points="60.75 11.36 63.48 13.09 63.48 13.1 60.75 11.37 60.75 11.36"/><polygon class="cls-125" points="60.75 11.34 63.48 13.07 63.48 13.09 60.75 11.36 60.75 11.34"/><polygon class="cls-126" points="60.75 11.33 63.48 13.06 63.48 13.07 60.75 11.34 60.75 11.33"/><polygon class="cls-127" points="60.75 11.31 63.48 13.04 63.48 13.06 60.75 11.33 60.75 11.31"/><polygon class="cls-128" points="60.75 11.3 63.48 13.03 63.48 13.04 60.75 11.31 60.75 11.3"/><polygon class="cls-129" points="60.75 11.28 63.48 13.01 63.48 13.03 60.75 11.3 60.75 11.28"/><polygon class="cls-130" points="60.75 11.27 63.48 13 63.48 13.01 60.75 11.28 60.75 11.27"/><polygon class="cls-131" points="60.75 11.25 63.48 12.98 63.48 13 60.75 11.27 60.75 11.25"/><polygon class="cls-132" points="60.75 11.24 63.48 12.97 63.48 12.98 60.75 11.25 60.75 11.24"/><polygon class="cls-133" points="60.75 11.22 63.48 12.95 63.48 12.97 60.75 11.24 60.75 11.22"/><polygon class="cls-134" points="60.75 11.21 63.48 12.94 63.48 12.95 60.75 11.22 60.75 11.21"/><polygon class="cls-135" points="60.75 11.19 63.48 12.92 63.48 12.94 60.75 11.21 60.75 11.19"/><polygon class="cls-136" points="60.75 11.18 63.48 12.91 63.48 12.92 60.75 11.19 60.75 11.18"/><polygon class="cls-137" points="60.75 11.16 63.48 12.89 63.48 12.91 60.75 11.18 60.75 11.16"/><polygon class="cls-138" points="60.75 11.15 63.48 12.88 63.48 12.89 60.75 11.16 60.75 11.15"/><polygon class="cls-139" points="60.75 11.13 63.48 12.86 63.48 12.88 60.75 11.15 60.75 11.13"/><polygon class="cls-140" points="60.75 11.12 63.48 12.85 63.48 12.86 60.75 11.13 60.75 11.12"/><polygon class="cls-141" points="60.75 11.1 63.48 12.83 63.48 12.85 60.75 11.12 60.75 11.1"/><polygon class="cls-142" points="60.75 11.09 63.48 12.82 63.48 12.83 60.75 11.1 60.75 11.09"/><polygon class="cls-143" points="60.75 11.07 63.48 12.8 63.48 12.82 60.75 11.09 60.75 11.07"/><polygon class="cls-144" points="60.75 11.06 63.48 12.79 63.48 12.8 60.75 11.07 60.75 11.06"/><polygon class="cls-145" points="60.75 11.04 63.48 12.77 63.48 12.79 60.75 11.06 60.75 11.04"/><polygon class="cls-146" points="60.75 11.03 63.48 12.76 63.48 12.77 60.75 11.04 60.75 11.03"/><polygon class="cls-147" points="60.75 11.01 63.48 12.74 63.48 12.76 60.75 11.03 60.75 11.01"/><polygon class="cls-148" points="60.75 11 63.48 12.73 63.48 12.74 60.75 11.01 60.75 11"/><polygon class="cls-149" points="60.75 10.98 63.48 12.71 63.48 12.73 60.75 11 60.75 10.98"/><polygon class="cls-150" points="60.75 10.97 63.48 12.7 63.48 12.71 60.75 10.98 60.75 10.97"/><polygon class="cls-151" points="60.75 10.95 63.48 12.68 63.48 12.7 60.75 10.97 60.75 10.95"/><polygon class="cls-152" points="60.75 10.94 63.48 12.67 63.48 12.68 60.75 10.95 60.75 10.94"/><polygon class="cls-153" points="60.75 10.92 63.48 12.65 63.48 12.67 60.75 10.94 60.75 10.92"/><polygon class="cls-154" points="60.75 10.91 63.48 12.64 63.48 12.65 60.75 10.92 60.75 10.91"/><polygon class="cls-155" points="60.75 10.89 63.48 12.62 63.48 12.64 60.75 10.91 60.75 10.89"/><polygon class="cls-156" points="60.75 10.88 63.48 12.61 63.48 12.62 60.75 10.89 60.75 10.88"/><polygon class="cls-157" points="60.75 10.86 63.48 12.59 63.48 12.61 60.75 10.88 60.75 10.86"/><polygon class="cls-158" points="60.75 10.85 63.48 12.58 63.48 12.59 60.75 10.86 60.75 10.85"/><polygon class="cls-159" points="60.75 10.83 63.48 12.56 63.48 12.58 60.75 10.85 60.75 10.83"/><polygon class="cls-160" points="60.75 10.82 63.48 12.55 63.48 12.56 60.75 10.83 60.75 10.82"/><polygon class="cls-161" points="60.75 10.8 63.48 12.53 63.48 12.55 60.75 10.82 60.75 10.8"/><polygon class="cls-162" points="60.75 10.79 63.48 12.52 63.48 12.53 60.75 10.8 60.75 10.79"/><polygon class="cls-163" points="60.75 10.77 63.48 12.5 63.48 12.52 60.75 10.79 60.75 10.77"/><polygon class="cls-164" points="60.75 10.76 63.48 12.49 63.48 12.5 60.75 10.77 60.75 10.76"/><polygon class="cls-165" points="60.75 10.74 63.48 12.47 63.48 12.49 60.75 10.76 60.75 10.74"/><polygon class="cls-166" points="60.75 10.73 63.48 12.46 63.48 12.47 60.75 10.74 60.75 10.73"/><polygon class="cls-167" points="60.75 10.71 63.48 12.44 63.48 12.46 60.75 10.73 60.75 10.71"/><polygon class="cls-168" points="60.75 10.7 63.48 12.43 63.48 12.44 60.75 10.71 60.75 10.7"/><polygon class="cls-169" points="60.75 10.68 63.48 12.41 63.48 12.43 60.75 10.7 60.75 10.68"/><polygon class="cls-170" points="60.75 10.67 63.48 12.4 63.48 12.41 60.75 10.68 60.75 10.67"/><polygon class="cls-171" points="60.75 10.65 63.48 12.38 63.48 12.4 60.75 10.67 60.75 10.65"/><polygon class="cls-172" points="60.75 10.64 63.48 12.37 63.48 12.38 60.75 10.65 60.75 10.64"/><polygon class="cls-173" points="60.75 10.62 63.48 12.35 63.48 12.37 60.75 10.64 60.75 10.62"/><polygon class="cls-174" points="60.75 10.61 63.48 12.34 63.48 12.35 60.75 10.62 60.75 10.61"/><polygon class="cls-175" points="60.75 10.59 63.48 12.32 63.48 12.34 60.75 10.61 60.75 10.59"/><polygon class="cls-176" points="60.75 10.58 63.48 12.31 63.48 12.32 60.75 10.59 60.75 10.58"/><polygon class="cls-177" points="60.75 10.56 63.48 12.29 63.48 12.31 60.75 10.58 60.75 10.56"/><polygon class="cls-178" points="60.75 10.55 63.48 12.28 63.48 12.29 60.75 10.56 60.75 10.55"/><polygon class="cls-179" points="60.75 10.53 63.48 12.26 63.48 12.28 60.75 10.55 60.75 10.53"/><polygon class="cls-180" points="60.75 10.52 63.48 12.25 63.48 12.26 60.75 10.53 60.75 10.52"/><polygon class="cls-181" points="60.75 10.5 63.48 12.23 63.48 12.25 60.75 10.52 60.75 10.5"/><polygon class="cls-182" points="60.75 10.49 63.48 12.22 63.48 12.23 60.75 10.5 60.75 10.49"/><polygon class="cls-183" points="60.75 10.47 63.48 12.2 63.48 12.22 60.75 10.49 60.75 10.47"/><polygon class="cls-184" points="60.75 10.46 63.48 12.19 63.48 12.2 60.75 10.47 60.75 10.46"/><polygon class="cls-185" points="60.75 10.44 63.48 12.17 63.48 12.19 60.75 10.46 60.75 10.44"/><polygon class="cls-186" points="60.75 10.43 63.48 12.16 63.48 12.17 60.75 10.44 60.75 10.43"/><polygon class="cls-187" points="60.75 10.41 63.48 12.14 63.48 12.16 60.75 10.43 60.75 10.41"/><polygon class="cls-188" points="60.75 10.4 63.48 12.13 63.48 12.14 60.75 10.41 60.75 10.4"/><polygon class="cls-189" points="60.75 10.38 63.48 12.11 63.48 12.13 60.75 10.4 60.75 10.38"/><polygon class="cls-190" points="60.75 10.37 63.48 12.1 63.48 12.11 60.75 10.38 60.75 10.37"/><polygon class="cls-191" points="60.75 10.35 63.48 12.08 63.48 12.1 60.75 10.37 60.75 10.35"/><polygon class="cls-192" points="60.75 10.34 63.48 12.07 63.48 12.08 60.75 10.35 60.75 10.34"/><polygon class="cls-193" points="60.75 10.32 63.48 12.05 63.48 12.07 60.75 10.34 60.75 10.32"/><polygon class="cls-194" points="60.75 10.31 63.48 12.04 63.48 12.05 60.75 10.32 60.75 10.31"/><polygon class="cls-195" points="60.75 10.29 63.48 12.02 63.48 12.04 60.75 10.31 60.75 10.29"/><polygon class="cls-196" points="60.75 10.28 63.48 12.01 63.48 12.02 60.75 10.29 60.75 10.28"/><polygon class="cls-197" points="60.75 10.26 63.48 11.99 63.48 12.01 60.75 10.28 60.75 10.26"/><polygon class="cls-198" points="60.75 10.25 63.48 11.98 63.48 11.99 60.75 10.26 60.75 10.25"/><polygon class="cls-199" points="60.75 10.23 63.48 11.96 63.48 11.98 60.75 10.25 60.75 10.23"/><polygon class="cls-200" points="60.75 10.22 63.48 11.95 63.48 11.96 60.75 10.23 60.75 10.22"/><polygon class="cls-201" points="60.75 10.2 63.48 11.93 63.48 11.95 60.75 10.22 60.75 10.2"/><polygon class="cls-202" points="60.75 10.19 63.48 11.92 63.48 11.93 60.75 10.2 60.75 10.19"/><polygon class="cls-203" points="60.75 10.17 63.48 11.9 63.48 11.92 60.75 10.19 60.75 10.17"/><polygon class="cls-204" points="60.75 10.16 63.48 11.89 63.48 11.9 60.75 10.17 60.75 10.16"/><polygon class="cls-205" points="60.75 10.14 63.48 11.87 63.48 11.89 60.75 10.16 60.75 10.14"/><polygon class="cls-206" points="60.75 10.13 63.48 11.86 63.48 11.87 60.75 10.14 60.75 10.13"/><polygon class="cls-207" points="60.75 10.11 63.48 11.84 63.48 11.86 60.75 10.13 60.75 10.11"/><polygon class="cls-208" points="60.75 10.1 63.48 11.83 63.48 11.84 60.75 10.11 60.75 10.1"/><polygon class="cls-209" points="60.75 10.08 63.48 11.81 63.48 11.83 60.75 10.1 60.75 10.08"/><polygon class="cls-210" points="60.75 10.07 63.48 11.8 63.48 11.81 60.75 10.08 60.75 10.07"/><polygon class="cls-211" points="60.75 10.05 63.48 11.78 63.48 11.8 60.75 10.07 60.75 10.05"/><polygon class="cls-212" points="60.75 10.04 63.48 11.77 63.48 11.78 60.75 10.05 60.75 10.04"/><polygon class="cls-213" points="60.75 10.02 63.48 11.75 63.48 11.77 60.75 10.04 60.75 10.02"/><polygon class="cls-214" points="60.75 10.01 63.48 11.74 63.48 11.75 60.75 10.02 60.75 10.01"/><polygon class="cls-215" points="60.75 9.99 63.48 11.72 63.48 11.74 60.75 10.01 60.75 9.99"/><polygon class="cls-216" points="60.75 9.98 63.48 11.71 63.48 11.72 60.75 9.99 60.75 9.98"/><polygon class="cls-217" points="60.75 9.96 63.48 11.69 63.48 11.71 60.75 9.98 60.75 9.96"/><polygon class="cls-218" points="60.75 9.95 63.48 11.68 63.48 11.69 60.75 9.96 60.75 9.95"/><polygon class="cls-219" points="60.75 9.94 63.48 11.66 63.48 11.68 60.75 9.95 60.75 9.94"/><polygon class="cls-220" points="60.75 9.92 63.48 11.65 63.48 11.66 60.75 9.94 60.75 9.92"/><polygon class="cls-221" points="60.75 9.9 63.48 11.63 63.48 11.65 60.75 9.92 60.75 9.9"/><polygon class="cls-222" points="60.75 9.89 63.48 11.62 63.48 11.63 60.75 9.9 60.75 9.89"/><polygon class="cls-223" points="60.75 9.88 63.48 11.6 63.48 11.62 60.75 9.89 60.75 9.88"/><polygon class="cls-224" points="60.75 9.86 63.48 11.59 63.48 11.6 60.75 9.88 60.75 9.86"/><polygon class="cls-225" points="60.75 9.85 63.48 11.57 63.48 11.59 60.75 9.86 60.75 9.85"/><polygon class="cls-226" points="60.75 9.83 63.48 11.56 63.48 11.57 60.75 9.85 60.75 9.83"/><polygon class="cls-226" points="63.48 11.56 60.75 9.83 60.75 9.81 63.48 9.81 63.48 11.56"/></g><path d="M954.58,543.27c-.16.19-2.3,2.94,1.47,4.71a4.67,4.67,0,0,0,4.17-.5l1.24,1.32,0,0a8.16,8.16,0,0,1-5,1.48,8.58,8.58,0,0,1-5.23-1.5c-2.85-3.07-1.54-5.78-.43-6.88,3.5-3.49,9.58-2.31,9.19-6.46-.2-2.15-3-2.29-4.14-.48a1.23,1.23,0,0,0-.24.76c0,.62.22.89.76,1.46-.48.22-1,.41-1.55.59l0-.06c-2.62-2.3-2.59-6.55,2.46-7.39a6.17,6.17,0,0,1,4.08,1.46,4.87,4.87,0,0,1,1.62,3.78,5.25,5.25,0,0,1-2.86,4.87c-.24.13-1,.49-1.9.89h0c-1.26.58-2.68,1.21-2.68,1.21a2.54,2.54,0,0,0-1,.72Z" transform="translate(-900.81 -530.32)"/><g class="cls-228"><polygon class="cls-3" points="47.61 18 48.01 18.48 47.61 18.48 47.61 18"/><polygon class="cls-3" points="47.61 17.89 48.1 18.48 48.01 18.48 47.61 18 47.61 17.89"/><polygon class="cls-4" points="47.61 17.79 48.19 18.48 48.1 18.48 47.61 17.89 47.61 17.79"/><polygon class="cls-5" points="47.61 17.68 48.28 18.48 48.19 18.48 47.61 17.79 47.61 17.68"/><polygon class="cls-6" points="47.61 17.58 48.36 18.48 48.28 18.48 47.61 17.68 47.61 17.58"/><polygon class="cls-7" points="47.61 17.47 48.45 18.48 48.36 18.48 47.61 17.58 47.61 17.47"/><polygon class="cls-8" points="47.61 17.37 48.54 18.48 48.45 18.48 47.61 17.47 47.61 17.37"/><polygon class="cls-9" points="47.61 17.27 48.63 18.48 48.54 18.48 47.61 17.37 47.61 17.27"/><polygon class="cls-10" points="47.61 17.16 48.71 18.48 48.63 18.48 47.61 17.27 47.61 17.16"/><polygon class="cls-11" points="47.61 17.06 48.8 18.48 48.71 18.48 47.61 17.16 47.61 17.06"/><polygon class="cls-12" points="47.61 16.95 48.89 18.48 48.8 18.48 47.61 17.06 47.61 16.95"/><polygon class="cls-13" points="47.61 16.85 48.98 18.48 48.89 18.48 47.61 16.95 47.61 16.85"/><polygon class="cls-14" points="47.61 16.74 49.06 18.48 48.98 18.48 47.61 16.85 47.61 16.74"/><polygon class="cls-15" points="47.61 16.64 49.15 18.48 49.06 18.48 47.61 16.74 47.61 16.64"/><polygon class="cls-16" points="47.61 16.53 49.24 18.48 49.15 18.48 47.61 16.64 47.61 16.53"/><polygon class="cls-17" points="47.61 16.43 49.33 18.48 49.24 18.48 47.61 16.53 47.61 16.43"/><polygon class="cls-18" points="47.61 16.32 49.41 18.48 49.33 18.48 47.61 16.43 47.61 16.32"/><polygon class="cls-19" points="47.61 16.22 49.5 18.48 49.41 18.48 47.61 16.32 47.61 16.22"/><polygon class="cls-20" points="47.61 16.12 49.59 18.48 49.5 18.48 47.61 16.22 47.61 16.12"/><polygon class="cls-21" points="47.61 16.01 49.68 18.48 49.59 18.48 47.61 16.12 47.61 16.01"/><polygon class="cls-22" points="47.61 15.91 49.77 18.48 49.68 18.48 47.61 16.01 47.61 15.91"/><polygon class="cls-23" points="47.61 15.8 49.85 18.48 49.77 18.48 47.61 15.91 47.61 15.8"/><polygon class="cls-24" points="47.61 15.7 49.94 18.48 49.85 18.48 47.61 15.8 47.61 15.7"/><polygon class="cls-25" points="47.61 15.59 50.03 18.48 49.94 18.48 47.61 15.7 47.61 15.59"/><polygon class="cls-26" points="47.61 15.49 50.12 18.48 50.03 18.48 47.61 15.59 47.61 15.49"/><polygon class="cls-27" points="47.61 15.38 50.2 18.48 50.12 18.48 47.61 15.49 47.61 15.38"/><polygon class="cls-28" points="47.61 15.28 50.29 18.48 50.2 18.48 47.61 15.38 47.61 15.28"/><polygon class="cls-29" points="47.61 15.18 50.38 18.48 50.29 18.48 47.61 15.28 47.61 15.18"/><polygon class="cls-30" points="47.61 15.07 50.47 18.48 50.38 18.48 47.61 15.18 47.61 15.07"/><polygon class="cls-31" points="47.61 14.97 50.55 18.48 50.47 18.48 47.61 15.07 47.61 14.97"/><polygon class="cls-32" points="47.61 14.86 50.64 18.48 50.55 18.48 47.61 14.97 47.61 14.86"/><polygon class="cls-33" points="47.61 14.76 50.73 18.48 50.64 18.48 47.61 14.86 47.61 14.76"/><polygon class="cls-34" points="47.61 14.65 50.82 18.48 50.73 18.48 47.61 14.76 47.61 14.65"/><polygon class="cls-35" points="47.61 14.55 50.91 18.48 50.82 18.48 47.61 14.65 47.61 14.55"/><polygon class="cls-36" points="47.61 14.45 50.99 18.48 50.91 18.48 47.61 14.55 47.61 14.45"/><polygon class="cls-37" points="47.61 14.34 51.08 18.48 50.99 18.48 47.61 14.45 47.61 14.34"/><polygon class="cls-38" points="47.61 14.24 51.17 18.48 51.08 18.48 47.61 14.34 47.61 14.24"/><polygon class="cls-39" points="47.61 14.13 51.26 18.48 51.17 18.48 47.61 14.24 47.61 14.13"/><polygon class="cls-40" points="47.61 14.03 51.34 18.48 51.26 18.48 47.61 14.13 47.61 14.03"/><polygon class="cls-41" points="47.61 13.92 51.43 18.48 51.34 18.48 47.61 14.03 47.61 13.92"/><polygon class="cls-42" points="47.61 13.82 51.51 18.46 51.49 18.48 51.43 18.48 47.61 13.92 47.61 13.82"/><polygon class="cls-43" points="47.61 13.71 51.56 18.42 51.51 18.46 47.61 13.82 47.61 13.71"/><polygon class="cls-44" points="47.61 13.61 51.61 18.38 51.56 18.42 47.61 13.71 47.61 13.61"/><polygon class="cls-45" points="47.61 13.51 51.66 18.34 51.61 18.38 47.61 13.61 47.61 13.51"/><polygon class="cls-46" points="47.61 13.4 51.71 18.29 51.66 18.34 47.61 13.51 47.61 13.4"/><polygon class="cls-47" points="47.61 13.3 51.77 18.25 51.71 18.29 47.61 13.4 47.61 13.3"/><polygon class="cls-48" points="47.61 13.19 51.82 18.21 51.77 18.25 47.61 13.3 47.61 13.19"/><polygon class="cls-49" points="47.61 13.09 51.87 18.16 51.82 18.21 47.61 13.19 47.61 13.09"/><polygon class="cls-50" points="47.61 12.98 51.92 18.12 51.87 18.16 47.61 13.09 47.61 12.98"/><polygon class="cls-51" points="47.61 12.88 51.97 18.08 51.92 18.12 47.61 12.98 47.61 12.88"/><polygon class="cls-52" points="47.61 12.77 52.02 18.03 51.97 18.08 47.61 12.88 47.61 12.77"/><polygon class="cls-53" points="47.61 12.67 52.07 17.99 52.02 18.03 47.61 12.77 47.61 12.67"/><polygon class="cls-54" points="47.61 12.57 52.13 17.95 52.07 17.99 47.61 12.67 47.61 12.57"/><polygon class="cls-55" points="47.61 12.46 52.18 17.9 52.13 17.95 47.61 12.57 47.61 12.46"/><polygon class="cls-56" points="47.61 12.36 52.23 17.86 52.18 17.9 47.61 12.46 47.61 12.36"/><polygon class="cls-57" points="47.61 12.25 52.28 17.82 52.23 17.86 47.61 12.36 47.61 12.25"/><polygon class="cls-58" points="47.61 12.15 52.33 17.77 52.28 17.82 47.61 12.25 47.61 12.15"/><polygon class="cls-59" points="47.61 12.04 52.38 17.73 52.33 17.77 47.61 12.15 47.61 12.04"/><polygon class="cls-60" points="47.61 11.94 52.43 17.69 52.38 17.73 47.61 12.04 47.61 11.94"/><polygon class="cls-61" points="47.61 11.83 52.48 17.64 52.43 17.69 47.61 11.94 47.61 11.83"/><polygon class="cls-62" points="47.61 11.73 52.54 17.6 52.48 17.64 47.61 11.83 47.61 11.73"/><polygon class="cls-63" points="47.61 11.63 52.59 17.56 52.54 17.6 47.61 11.73 47.61 11.63"/><polygon class="cls-64" points="47.61 11.52 52.64 17.52 52.59 17.56 47.61 11.63 47.61 11.52"/><polygon class="cls-65" points="47.61 11.42 52.69 17.47 52.64 17.52 47.61 11.52 47.61 11.42"/><polygon class="cls-66" points="47.61 11.31 52.74 17.43 52.69 17.47 47.61 11.42 47.61 11.31"/><polygon class="cls-67" points="47.61 11.21 52.79 17.39 52.74 17.43 47.61 11.31 47.61 11.21"/><polygon class="cls-68" points="47.61 11.1 52.84 17.34 52.79 17.39 47.61 11.21 47.61 11.1"/><polygon class="cls-69" points="47.61 11 52.9 17.3 52.84 17.34 47.61 11.1 47.61 11"/><polygon class="cls-70" points="47.61 10.89 52.95 17.26 52.9 17.3 47.61 11 47.61 10.89"/><polygon class="cls-71" points="47.61 10.79 53 17.21 52.95 17.26 47.61 10.89 47.61 10.79"/><polygon class="cls-72" points="47.61 10.69 53.05 17.17 53 17.21 47.61 10.79 47.61 10.69"/><polygon class="cls-73" points="47.61 10.58 53.1 17.13 53.05 17.17 47.61 10.69 47.61 10.58"/><polygon class="cls-74" points="47.61 10.48 53.15 17.08 53.1 17.13 47.61 10.58 47.61 10.48"/><polygon class="cls-75" points="47.61 10.37 53.2 17.04 53.15 17.08 47.61 10.48 47.61 10.37"/><polygon class="cls-76" points="47.61 10.27 53.26 17 53.2 17.04 47.61 10.37 47.61 10.27"/><polygon class="cls-77" points="47.61 10.16 53.31 16.95 53.26 17 47.61 10.27 47.61 10.16"/><polygon class="cls-78" points="47.61 10.06 53.36 16.91 53.31 16.95 47.61 10.16 47.61 10.06"/><polygon class="cls-79" points="47.61 9.96 53.41 16.87 53.36 16.91 47.61 10.06 47.61 9.96"/><polygon class="cls-80" points="47.61 9.85 53.46 16.82 53.41 16.87 47.61 9.96 47.61 9.85"/><polygon class="cls-81" points="47.61 9.75 53.51 16.78 53.46 16.82 47.61 9.85 47.61 9.75"/><polygon class="cls-82" points="47.61 9.64 53.56 16.74 53.51 16.78 47.61 9.75 47.61 9.64"/><polygon class="cls-83" points="47.61 9.54 53.62 16.7 53.56 16.74 47.61 9.64 47.61 9.54"/><polygon class="cls-84" points="47.61 9.43 53.67 16.65 53.62 16.7 47.61 9.54 47.61 9.43"/><polygon class="cls-85" points="47.61 9.33 53.72 16.61 53.67 16.65 47.61 9.43 47.61 9.33"/><polygon class="cls-86" points="47.61 9.22 53.77 16.57 53.72 16.61 47.61 9.33 47.61 9.22"/><polygon class="cls-87" points="47.61 9.18 47.64 9.16 53.82 16.52 53.77 16.57 47.61 9.22 47.61 9.18"/><rect class="cls-88" x="951.53" y="538.33" width="0.07" height="9.62" transform="translate(-1027.31 208.4) rotate(-40)"/><rect class="cls-89" x="951.58" y="538.29" width="0.07" height="9.62" transform="translate(-1027.27 208.42) rotate(-40)"/><rect class="cls-90" x="951.63" y="538.25" width="0.07" height="9.62" transform="translate(-1027.23 208.45) rotate(-40)"/><rect class="cls-91" x="951.68" y="538.2" width="0.07" height="9.62" transform="translate(-1027.19 208.47) rotate(-40)"/><rect class="cls-92" x="951.74" y="538.16" width="0.07" height="9.62" transform="translate(-1027.15 208.49) rotate(-40)"/><rect class="cls-93" x="951.79" y="538.12" width="0.07" height="9.62" transform="translate(-1027.11 208.51) rotate(-40)"/><rect class="cls-94" x="951.84" y="538.07" width="0.07" height="9.62" transform="translate(-1027.07 208.54) rotate(-40)"/><rect class="cls-95" x="951.89" y="538.03" width="0.07" height="9.62" transform="translate(-1027.03 208.56) rotate(-40)"/><rect class="cls-96" x="951.94" y="537.99" width="0.07" height="9.62" transform="translate(-1026.99 208.58) rotate(-40)"/><rect class="cls-97" x="951.99" y="537.95" width="0.07" height="9.62" transform="translate(-1026.95 208.61) rotate(-40)"/><rect class="cls-98" x="952.04" y="537.9" width="0.07" height="9.62" transform="translate(-1026.91 208.63) rotate(-40)"/><rect class="cls-99" x="952.1" y="537.86" width="0.07" height="9.62" transform="translate(-1026.87 208.65) rotate(-40)"/><rect class="cls-100" x="952.15" y="537.82" width="0.07" height="9.62" transform="translate(-1026.83 208.67) rotate(-40)"/><rect class="cls-101" x="952.2" y="537.77" width="0.07" height="9.62" transform="translate(-1026.79 208.7) rotate(-40)"/><rect class="cls-102" x="952.25" y="537.73" width="0.07" height="9.62" transform="translate(-1026.75 208.72) rotate(-40)"/><rect class="cls-103" x="952.3" y="537.69" width="0.07" height="9.62" transform="translate(-1026.71 208.74) rotate(-40)"/><rect class="cls-104" x="952.35" y="537.64" width="0.07" height="9.62" transform="translate(-1026.67 208.77) rotate(-40)"/><rect class="cls-105" x="952.4" y="537.6" width="0.07" height="9.62" transform="translate(-1026.63 208.79) rotate(-40)"/><rect class="cls-106" x="952.46" y="537.56" width="0.07" height="9.62" transform="translate(-1026.59 208.81) rotate(-40)"/><rect class="cls-107" x="952.51" y="537.51" width="0.07" height="9.62" transform="translate(-1026.55 208.84) rotate(-40)"/><rect class="cls-108" x="952.56" y="537.47" width="0.07" height="9.62" transform="translate(-1026.51 208.86) rotate(-40)"/><rect class="cls-109" x="952.61" y="537.43" width="0.07" height="9.62" transform="translate(-1026.47 208.88) rotate(-40)"/><rect class="cls-110" x="952.66" y="537.38" width="0.07" height="9.62" transform="translate(-1026.43 208.91) rotate(-40)"/><rect class="cls-111" x="952.71" y="537.34" width="0.07" height="9.62" transform="translate(-1026.39 208.93) rotate(-40)"/><rect class="cls-112" x="952.76" y="537.3" width="0.07" height="9.62" transform="translate(-1026.35 208.95) rotate(-40)"/><rect class="cls-113" x="952.82" y="537.25" width="0.07" height="9.62" transform="translate(-1026.31 208.98) rotate(-40)"/><rect class="cls-114" x="952.87" y="537.21" width="0.07" height="9.62" transform="translate(-1026.27 209) rotate(-40)"/><rect class="cls-115" x="952.92" y="537.17" width="0.07" height="9.62" transform="translate(-1026.24 209.02) rotate(-40)"/><rect class="cls-116" x="952.97" y="537.13" width="0.07" height="9.62" transform="translate(-1026.19 209.04) rotate(-40)"/><rect class="cls-117" x="953.02" y="537.08" width="0.07" height="9.62" transform="translate(-1026.16 209.07) rotate(-40)"/><rect class="cls-118" x="953.07" y="537.04" width="0.07" height="9.62" transform="translate(-1026.12 209.09) rotate(-40)"/><rect class="cls-119" x="953.12" y="537" width="0.07" height="9.62" transform="translate(-1026.08 209.11) rotate(-40)"/><rect class="cls-120" x="953.18" y="536.95" width="0.07" height="9.62" transform="translate(-1026.04 209.14) rotate(-40)"/><rect class="cls-121" x="953.23" y="536.91" width="0.07" height="9.62" transform="translate(-1026 209.16) rotate(-40)"/><rect class="cls-122" x="953.28" y="536.87" width="0.07" height="9.62" transform="translate(-1025.96 209.18) rotate(-40)"/><rect class="cls-123" x="953.33" y="536.82" width="0.07" height="9.62" transform="translate(-1025.92 209.2) rotate(-40)"/><rect class="cls-124" x="953.38" y="536.78" width="0.07" height="9.62" transform="translate(-1025.88 209.23) rotate(-40)"/><rect class="cls-125" x="953.43" y="536.74" width="0.07" height="9.62" transform="translate(-1025.84 209.25) rotate(-40)"/><rect class="cls-126" x="953.48" y="536.69" width="0.07" height="9.62" transform="translate(-1025.8 209.27) rotate(-40)"/><rect class="cls-127" x="953.54" y="536.65" width="0.07" height="9.62" transform="translate(-1025.76 209.3) rotate(-40)"/><rect class="cls-128" x="953.59" y="536.61" width="0.07" height="9.62" transform="translate(-1025.72 209.32) rotate(-40)"/><rect class="cls-129" x="953.64" y="536.56" width="0.07" height="9.62" transform="translate(-1025.68 209.34) rotate(-40)"/><rect class="cls-130" x="953.69" y="536.52" width="0.07" height="9.62" transform="translate(-1025.64 209.37) rotate(-40)"/><rect class="cls-131" x="953.74" y="536.48" width="0.07" height="9.62" transform="translate(-1025.6 209.39) rotate(-40)"/><rect class="cls-132" x="953.79" y="536.44" width="0.07" height="9.62" transform="translate(-1025.56 209.41) rotate(-40)"/><rect class="cls-133" x="953.84" y="536.39" width="0.07" height="9.62" transform="translate(-1025.52 209.43) rotate(-40)"/><rect class="cls-134" x="953.9" y="536.35" width="0.07" height="9.62" transform="translate(-1025.48 209.46) rotate(-40)"/><rect class="cls-135" x="953.95" y="536.31" width="0.07" height="9.62" transform="translate(-1025.44 209.48) rotate(-40)"/><rect class="cls-136" x="954" y="536.26" width="0.07" height="9.62" transform="translate(-1025.4 209.5) rotate(-40)"/><rect class="cls-137" x="954.05" y="536.22" width="0.07" height="9.62" transform="translate(-1025.36 209.52) rotate(-40)"/><rect class="cls-138" x="954.1" y="536.18" width="0.07" height="9.62" transform="translate(-1025.32 209.55) rotate(-40)"/><rect class="cls-139" x="954.15" y="536.13" width="0.07" height="9.62" transform="translate(-1025.28 209.57) rotate(-40)"/><rect class="cls-140" x="954.2" y="536.09" width="0.07" height="9.62" transform="translate(-1025.24 209.59) rotate(-40)"/><rect class="cls-141" x="954.26" y="536.05" width="0.07" height="9.62" transform="translate(-1025.2 209.62) rotate(-40)"/><rect class="cls-142" x="954.31" y="536" width="0.07" height="9.62" transform="translate(-1025.16 209.64) rotate(-40)"/><rect class="cls-143" x="954.36" y="535.96" width="0.07" height="9.62" transform="translate(-1025.12 209.66) rotate(-40)"/><rect class="cls-144" x="954.41" y="535.92" width="0.07" height="9.62" transform="translate(-1025.08 209.69) rotate(-40)"/><rect class="cls-145" x="954.46" y="535.87" width="0.07" height="9.62" transform="translate(-1025.04 209.71) rotate(-40)"/><rect class="cls-146" x="954.51" y="535.83" width="0.07" height="9.62" transform="translate(-1025 209.73) rotate(-40)"/><rect class="cls-147" x="954.56" y="535.79" width="0.07" height="9.62" transform="translate(-1024.96 209.75) rotate(-40)"/><rect class="cls-148" x="954.62" y="535.74" width="0.07" height="9.62" transform="translate(-1024.92 209.78) rotate(-40)"/><rect class="cls-149" x="954.67" y="535.7" width="0.07" height="9.62" transform="translate(-1024.88 209.8) rotate(-40)"/><rect class="cls-150" x="954.72" y="535.66" width="0.07" height="9.62" transform="translate(-1024.84 209.82) rotate(-40)"/><rect class="cls-151" x="954.77" y="535.62" width="0.07" height="9.62" transform="translate(-1024.8 209.85) rotate(-40)"/><rect class="cls-152" x="954.82" y="535.57" width="0.07" height="9.62" transform="translate(-1024.76 209.87) rotate(-40)"/><rect class="cls-153" x="954.87" y="535.53" width="0.07" height="9.62" transform="translate(-1024.72 209.89) rotate(-40)"/><rect class="cls-154" x="954.92" y="535.49" width="0.07" height="9.62" transform="translate(-1024.68 209.92) rotate(-40)"/><rect class="cls-155" x="954.98" y="535.44" width="0.07" height="9.62" transform="translate(-1024.64 209.94) rotate(-40)"/><rect class="cls-156" x="955.03" y="535.4" width="0.07" height="9.62" transform="translate(-1024.6 209.96) rotate(-40)"/><rect class="cls-157" x="955.08" y="535.36" width="0.07" height="9.62" transform="translate(-1024.56 209.99) rotate(-40)"/><rect class="cls-158" x="955.13" y="535.31" width="0.07" height="9.62" transform="translate(-1024.52 210.01) rotate(-40)"/><rect class="cls-159" x="955.18" y="535.27" width="0.07" height="9.62" transform="translate(-1024.49 210.03) rotate(-40)"/><rect class="cls-160" x="955.23" y="535.23" width="0.07" height="9.62" transform="translate(-1024.45 210.05) rotate(-40)"/><rect class="cls-161" x="955.28" y="535.18" width="0.07" height="9.62" transform="translate(-1024.41 210.08) rotate(-40)"/><rect class="cls-162" x="955.34" y="535.14" width="0.07" height="9.62" transform="translate(-1024.37 210.1) rotate(-40)"/><rect class="cls-163" x="955.39" y="535.1" width="0.07" height="9.62" transform="translate(-1024.33 210.12) rotate(-40)"/><rect class="cls-164" x="955.44" y="535.05" width="0.07" height="9.62" transform="translate(-1024.29 210.15) rotate(-40)"/><rect class="cls-165" x="955.49" y="535.01" width="0.07" height="9.62" transform="translate(-1024.25 210.17) rotate(-40)"/><rect class="cls-166" x="955.54" y="534.97" width="0.07" height="9.62" transform="translate(-1024.21 210.19) rotate(-40)"/><rect class="cls-167" x="955.59" y="534.92" width="0.07" height="9.62" transform="translate(-1024.17 210.21) rotate(-40)"/><rect class="cls-168" x="955.64" y="534.88" width="0.07" height="9.62" transform="translate(-1024.13 210.24) rotate(-40)"/><rect class="cls-169" x="955.7" y="534.84" width="0.07" height="9.62" transform="translate(-1024.09 210.26) rotate(-40)"/><rect class="cls-170" x="955.75" y="534.8" width="0.07" height="9.62" transform="translate(-1024.05 210.28) rotate(-40)"/><rect class="cls-171" x="955.8" y="534.75" width="0.07" height="9.62" transform="translate(-1024.01 210.31) rotate(-40)"/><rect class="cls-172" x="955.85" y="534.71" width="0.07" height="9.62" transform="translate(-1023.97 210.33) rotate(-40)"/><rect class="cls-173" x="955.9" y="534.67" width="0.07" height="9.62" transform="translate(-1023.93 210.35) rotate(-40)"/><rect class="cls-174" x="955.95" y="534.62" width="0.07" height="9.62" transform="translate(-1023.89 210.38) rotate(-40)"/><rect class="cls-175" x="956" y="534.58" width="0.07" height="9.62" transform="translate(-1023.85 210.4) rotate(-40)"/><rect class="cls-176" x="956.06" y="534.54" width="0.07" height="9.62" transform="translate(-1023.81 210.42) rotate(-40)"/><rect class="cls-177" x="956.11" y="534.49" width="0.07" height="9.62" transform="translate(-1023.77 210.44) rotate(-40)"/><rect class="cls-178" x="956.16" y="534.45" width="0.07" height="9.62" transform="translate(-1023.73 210.47) rotate(-40)"/><rect class="cls-179" x="956.21" y="534.41" width="0.07" height="9.62" transform="translate(-1023.69 210.49) rotate(-40)"/><rect class="cls-180" x="956.26" y="534.36" width="0.07" height="9.62" transform="translate(-1023.65 210.51) rotate(-40)"/><rect class="cls-181" x="956.31" y="534.32" width="0.07" height="9.62" transform="translate(-1023.61 210.53) rotate(-40)"/><rect class="cls-182" x="956.36" y="534.28" width="0.07" height="9.62" transform="translate(-1023.57 210.56) rotate(-40)"/><rect class="cls-183" x="956.42" y="534.23" width="0.07" height="9.62" transform="translate(-1023.53 210.58) rotate(-40)"/><rect class="cls-184" x="956.47" y="534.19" width="0.07" height="9.62" transform="translate(-1023.49 210.61) rotate(-40)"/><rect class="cls-185" x="956.52" y="534.15" width="0.07" height="9.62" transform="translate(-1023.45 210.63) rotate(-40)"/><rect class="cls-186" x="956.57" y="534.11" width="0.07" height="9.62" transform="translate(-1023.41 210.65) rotate(-40)"/><rect class="cls-187" x="956.62" y="534.06" width="0.07" height="9.62" transform="translate(-1023.37 210.67) rotate(-40)"/><rect class="cls-188" x="956.67" y="534.02" width="0.07" height="9.62" transform="translate(-1023.33 210.7) rotate(-40)"/><rect class="cls-189" x="956.72" y="533.98" width="0.07" height="9.62" transform="translate(-1023.29 210.72) rotate(-40)"/><rect class="cls-190" x="956.78" y="533.93" width="0.07" height="9.62" transform="translate(-1023.25 210.74) rotate(-40)"/><rect class="cls-191" x="956.83" y="533.89" width="0.07" height="9.62" transform="translate(-1023.21 210.76) rotate(-40)"/><rect class="cls-192" x="956.88" y="533.85" width="0.07" height="9.62" transform="translate(-1023.17 210.79) rotate(-40)"/><rect class="cls-193" x="956.93" y="533.8" width="0.07" height="9.62" transform="translate(-1023.13 210.81) rotate(-40)"/><rect class="cls-194" x="956.98" y="533.76" width="0.07" height="9.62" transform="translate(-1023.09 210.83) rotate(-40)"/><rect class="cls-195" x="957.03" y="533.72" width="0.07" height="9.62" transform="translate(-1023.05 210.86) rotate(-40)"/><rect class="cls-196" x="957.08" y="533.67" width="0.07" height="9.62" transform="translate(-1023.01 210.88) rotate(-40)"/><rect class="cls-197" x="957.14" y="533.63" width="0.07" height="9.62" transform="translate(-1022.97 210.9) rotate(-40)"/><rect class="cls-198" x="957.19" y="533.59" width="0.07" height="9.62" transform="translate(-1022.93 210.93) rotate(-40)"/><rect class="cls-199" x="957.24" y="533.54" width="0.07" height="9.62" transform="translate(-1022.89 210.95) rotate(-40)"/><polygon class="cls-200" points="53.4 4.32 53.45 4.28 59.62 11.63 59.62 11.66 59.58 11.69 53.4 4.32"/><polygon class="cls-201" points="53.45 4.28 53.5 4.24 59.62 11.52 59.62 11.63 53.45 4.28"/><polygon class="cls-202" points="53.5 4.24 53.55 4.19 59.62 11.42 59.62 11.52 53.5 4.24"/><polygon class="cls-203" points="53.55 4.19 53.6 4.15 59.62 11.31 59.62 11.42 53.55 4.19"/><polygon class="cls-204" points="53.6 4.15 53.66 4.11 59.62 11.21 59.62 11.31 53.6 4.15"/><polygon class="cls-205" points="53.66 4.11 53.71 4.06 59.62 11.1 59.62 11.21 53.66 4.11"/><polygon class="cls-206" points="53.71 4.06 53.76 4.02 59.62 11 59.62 11.1 53.71 4.06"/><polygon class="cls-207" points="53.76 4.02 53.81 3.98 59.62 10.89 59.62 11 53.76 4.02"/><polygon class="cls-208" points="53.81 3.98 53.86 3.94 59.62 10.79 59.62 10.89 53.81 3.98"/><polygon class="cls-209" points="53.86 3.94 53.91 3.89 59.62 10.69 59.62 10.79 53.86 3.94"/><polygon class="cls-210" points="53.91 3.89 53.97 3.85 59.62 10.58 59.62 10.69 53.91 3.89"/><polygon class="cls-211" points="53.97 3.85 54.02 3.81 59.62 10.48 59.62 10.58 53.97 3.85"/><polygon class="cls-212" points="54.02 3.81 54.07 3.76 59.62 10.37 59.62 10.48 54.02 3.81"/><polygon class="cls-213" points="54.07 3.76 54.12 3.72 59.62 10.27 59.62 10.37 54.07 3.76"/><polygon class="cls-214" points="54.12 3.72 54.17 3.68 59.62 10.16 59.62 10.27 54.12 3.72"/><polygon class="cls-215" points="54.17 3.68 54.22 3.63 59.62 10.06 59.62 10.16 54.17 3.68"/><polygon class="cls-216" points="54.22 3.63 54.27 3.59 59.62 9.95 59.62 10.06 54.22 3.63"/><polygon class="cls-217" points="54.27 3.59 54.33 3.55 59.62 9.85 59.62 9.95 54.27 3.59"/><polygon class="cls-218" points="54.33 3.55 54.38 3.5 59.62 9.74 59.62 9.85 54.33 3.55"/><polygon class="cls-219" points="54.38 3.5 54.43 3.46 59.62 9.64 59.62 9.74 54.38 3.5"/><polygon class="cls-220" points="54.43 3.46 54.48 3.42 59.62 9.54 59.62 9.64 54.43 3.46"/><polygon class="cls-221" points="54.48 3.42 54.53 3.37 59.62 9.43 59.62 9.54 54.48 3.42"/><polygon class="cls-222" points="54.53 3.37 54.58 3.33 59.62 9.33 59.62 9.43 54.53 3.37"/><polygon class="cls-223" points="54.58 3.33 54.63 3.29 59.62 9.22 59.62 9.33 54.58 3.33"/><polygon class="cls-224" points="54.63 3.29 54.69 3.24 59.62 9.12 59.62 9.22 54.63 3.29"/><polygon class="cls-225" points="54.69 3.24 54.74 3.2 59.62 9.01 59.62 9.12 54.69 3.24"/><polygon class="cls-226" points="54.74 3.2 54.79 3.16 59.62 8.91 59.62 9.01 54.74 3.2"/><polygon class="cls-226" points="54.79 3.16 55.16 2.85 59.62 2.85 59.62 8.91 54.79 3.16"/></g><g class="cls-229"><rect class="cls-3" x="51.47" y="12.94" width="1.55" height="5.66"/><rect class="cls-3" x="53.02" y="12.94" width="0.03" height="5.66"/><rect class="cls-4" x="53.05" y="12.94" width="0.03" height="5.66"/><rect class="cls-5" x="53.08" y="12.94" width="0.03" height="5.66"/><rect class="cls-6" x="53.11" y="12.94" width="0.03" height="5.66"/><rect class="cls-7" x="53.14" y="12.94" width="0.03" height="5.66"/><rect class="cls-8" x="53.17" y="12.94" width="0.03" height="5.66"/><rect class="cls-9" x="53.19" y="12.94" width="0.03" height="5.66"/><rect class="cls-10" x="53.22" y="12.94" width="0.03" height="5.66"/><rect class="cls-11" x="53.25" y="12.94" width="0.03" height="5.66"/><rect class="cls-12" x="53.28" y="12.94" width="0.03" height="5.66"/><rect class="cls-13" x="53.31" y="12.94" width="0.03" height="5.66"/><rect class="cls-14" x="53.34" y="12.94" width="0.03" height="5.66"/><rect class="cls-15" x="53.37" y="12.94" width="0.03" height="5.66"/><rect class="cls-16" x="53.39" y="12.94" width="0.03" height="5.66"/><rect class="cls-17" x="53.42" y="12.94" width="0.03" height="5.66"/><rect class="cls-18" x="53.45" y="12.94" width="0.03" height="5.66"/><rect class="cls-19" x="53.48" y="12.94" width="0.03" height="5.66"/><rect class="cls-20" x="53.51" y="12.94" width="0.03" height="5.66"/><rect class="cls-21" x="53.54" y="12.94" width="0.03" height="5.66"/><rect class="cls-22" x="53.57" y="12.94" width="0.03" height="5.66"/><rect class="cls-23" x="53.59" y="12.94" width="0.03" height="5.66"/><rect class="cls-24" x="53.62" y="12.94" width="0.03" height="5.66"/><rect class="cls-25" x="53.65" y="12.94" width="0.03" height="5.66"/><rect class="cls-26" x="53.68" y="12.94" width="0.03" height="5.66"/><rect class="cls-27" x="53.71" y="12.94" width="0.03" height="5.66"/><rect class="cls-28" x="53.74" y="12.94" width="0.03" height="5.66"/><rect class="cls-29" x="53.76" y="12.94" width="0.03" height="5.66"/><rect class="cls-30" x="53.79" y="12.94" width="0.03" height="5.66"/><rect class="cls-31" x="53.82" y="12.94" width="0.03" height="5.66"/><rect class="cls-32" x="53.85" y="12.94" width="0.03" height="5.66"/><rect class="cls-33" x="53.88" y="12.94" width="0.03" height="5.66"/><rect class="cls-34" x="53.91" y="12.94" width="0.03" height="5.66"/><rect class="cls-35" x="53.94" y="12.94" width="0.03" height="5.66"/><rect class="cls-36" x="53.96" y="12.94" width="0.03" height="5.66"/><rect class="cls-37" x="53.99" y="12.94" width="0.03" height="5.66"/><rect class="cls-38" x="54.02" y="12.94" width="0.03" height="5.66"/><rect class="cls-39" x="54.05" y="12.94" width="0.03" height="5.66"/><rect class="cls-40" x="54.08" y="12.94" width="0.03" height="5.66"/><rect class="cls-41" x="54.11" y="12.94" width="0.03" height="5.66"/><rect class="cls-42" x="54.14" y="12.94" width="0.03" height="5.66"/><rect class="cls-43" x="54.16" y="12.94" width="0.03" height="5.66"/><rect class="cls-44" x="54.19" y="12.94" width="0.03" height="5.66"/><rect class="cls-45" x="54.22" y="12.94" width="0.03" height="5.66"/><rect class="cls-46" x="54.25" y="12.94" width="0.03" height="5.66"/><rect class="cls-47" x="54.28" y="12.94" width="0.03" height="5.66"/><rect class="cls-48" x="54.31" y="12.94" width="0.03" height="5.66"/><rect class="cls-49" x="54.34" y="12.94" width="0.03" height="5.66"/><rect class="cls-50" x="54.36" y="12.94" width="0.03" height="5.66"/><rect class="cls-51" x="54.39" y="12.94" width="0.03" height="5.66"/><rect class="cls-52" x="54.42" y="12.94" width="0.03" height="5.66"/><rect class="cls-53" x="54.45" y="12.94" width="0.03" height="5.66"/><rect class="cls-54" x="54.48" y="12.94" width="0.03" height="5.66"/><rect class="cls-55" x="54.51" y="12.94" width="0.03" height="5.66"/><rect class="cls-56" x="54.54" y="12.94" width="0.03" height="5.66"/><rect class="cls-57" x="54.56" y="12.94" width="0.03" height="5.66"/><rect class="cls-58" x="54.59" y="12.94" width="0.03" height="5.66"/><rect class="cls-59" x="54.62" y="12.94" width="0.03" height="5.66"/><rect class="cls-60" x="54.65" y="12.94" width="0.03" height="5.66"/><rect class="cls-61" x="54.68" y="12.94" width="0.03" height="5.66"/><rect class="cls-62" x="54.71" y="12.94" width="0.03" height="5.66"/><rect class="cls-63" x="54.74" y="12.94" width="0.03" height="5.66"/><rect class="cls-64" x="54.76" y="12.94" width="0.03" height="5.66"/><rect class="cls-65" x="54.79" y="12.94" width="0.03" height="5.66"/><rect class="cls-66" x="54.82" y="12.94" width="0.03" height="5.66"/><rect class="cls-67" x="54.85" y="12.94" width="0.03" height="5.66"/><rect class="cls-68" x="54.88" y="12.94" width="0.03" height="5.66"/><rect class="cls-69" x="54.91" y="12.94" width="0.03" height="5.66"/><rect class="cls-70" x="54.94" y="12.94" width="0.03" height="5.66"/><rect class="cls-71" x="54.96" y="12.94" width="0.03" height="5.66"/><rect class="cls-72" x="54.99" y="12.94" width="0.03" height="5.66"/><rect class="cls-73" x="55.02" y="12.94" width="0.03" height="5.66"/><rect class="cls-74" x="55.05" y="12.94" width="0.03" height="5.66"/><rect class="cls-75" x="55.08" y="12.94" width="0.03" height="5.66"/><rect class="cls-76" x="55.11" y="12.94" width="0.03" height="5.66"/><rect class="cls-77" x="55.13" y="12.94" width="0.03" height="5.66"/><rect class="cls-78" x="55.16" y="12.94" width="0.03" height="5.66"/><rect class="cls-79" x="55.19" y="12.94" width="0.03" height="5.66"/><rect class="cls-80" x="55.22" y="12.94" width="0.03" height="5.66"/><rect class="cls-81" x="55.25" y="12.94" width="0.03" height="5.66"/><rect class="cls-82" x="55.28" y="12.94" width="0.03" height="5.66"/><rect class="cls-83" x="55.31" y="12.94" width="0.03" height="5.66"/><rect class="cls-84" x="55.33" y="12.94" width="0.03" height="5.66"/><rect class="cls-85" x="55.36" y="12.94" width="0.03" height="5.66"/><rect class="cls-86" x="55.39" y="12.94" width="0.03" height="5.66"/><rect class="cls-87" x="55.42" y="12.94" width="0.03" height="5.66"/><rect class="cls-88" x="55.45" y="12.94" width="0.03" height="5.66"/><rect class="cls-89" x="55.48" y="12.94" width="0.03" height="5.66"/><rect class="cls-90" x="55.51" y="12.94" width="0.03" height="5.66"/><rect class="cls-91" x="55.53" y="12.94" width="0.03" height="5.66"/><rect class="cls-92" x="55.56" y="12.94" width="0.03" height="5.66"/><rect class="cls-93" x="55.59" y="12.94" width="0.03" height="5.66"/><rect class="cls-94" x="55.62" y="12.94" width="0.03" height="5.66"/><rect class="cls-95" x="55.65" y="12.94" width="0.03" height="5.66"/><rect class="cls-96" x="55.68" y="12.94" width="0.03" height="5.66"/><rect class="cls-97" x="55.71" y="12.94" width="0.03" height="5.66"/><rect class="cls-98" x="55.73" y="12.94" width="0.03" height="5.66"/><rect class="cls-99" x="55.76" y="12.94" width="0.03" height="5.66"/><rect class="cls-100" x="55.79" y="12.94" width="0.03" height="5.66"/><rect class="cls-101" x="55.82" y="12.94" width="0.03" height="5.66"/><rect class="cls-102" x="55.85" y="12.94" width="0.03" height="5.66"/><rect class="cls-103" x="55.88" y="12.94" width="0.03" height="5.66"/><rect class="cls-104" x="55.91" y="12.94" width="0.03" height="5.66"/><rect class="cls-105" x="55.93" y="12.94" width="0.03" height="5.66"/><rect class="cls-106" x="55.96" y="12.94" width="0.03" height="5.66"/><rect class="cls-107" x="55.99" y="12.94" width="0.03" height="5.66"/><rect class="cls-108" x="56.02" y="12.94" width="0.03" height="5.66"/><rect class="cls-109" x="56.05" y="12.94" width="0.03" height="5.66"/><rect class="cls-110" x="56.08" y="12.94" width="0.03" height="5.66"/><rect class="cls-111" x="56.11" y="12.94" width="0.03" height="5.66"/><rect class="cls-112" x="56.13" y="12.94" width="0.03" height="5.66"/><rect class="cls-113" x="56.16" y="12.94" width="0.03" height="5.66"/><rect class="cls-114" x="56.19" y="12.94" width="0.03" height="5.66"/><rect class="cls-115" x="56.22" y="12.94" width="0.03" height="5.66"/><rect class="cls-116" x="56.25" y="12.94" width="0.03" height="5.66"/><rect class="cls-117" x="56.28" y="12.94" width="0.03" height="5.66"/><rect class="cls-118" x="56.3" y="12.94" width="0.03" height="5.66"/><rect class="cls-119" x="56.33" y="12.94" width="0.03" height="5.66"/><rect class="cls-120" x="56.36" y="12.94" width="0.03" height="5.66"/><rect class="cls-121" x="56.39" y="12.94" width="0.03" height="5.66"/><rect class="cls-122" x="56.42" y="12.94" width="0.03" height="5.66"/><rect class="cls-123" x="56.45" y="12.94" width="0.03" height="5.66"/><rect class="cls-124" x="56.48" y="12.94" width="0.03" height="5.66"/><rect class="cls-125" x="56.5" y="12.94" width="0.03" height="5.66"/><rect class="cls-126" x="56.53" y="12.94" width="0.03" height="5.66"/><rect class="cls-127" x="56.56" y="12.94" width="0.03" height="5.66"/><rect class="cls-128" x="56.59" y="12.94" width="0.03" height="5.66"/><rect class="cls-129" x="56.62" y="12.94" width="0.03" height="5.66"/><rect class="cls-130" x="56.65" y="12.94" width="0.03" height="5.66"/><rect class="cls-131" x="56.68" y="12.94" width="0.03" height="5.66"/><rect class="cls-132" x="56.7" y="12.94" width="0.03" height="5.66"/><rect class="cls-133" x="56.73" y="12.94" width="0.03" height="5.66"/><rect class="cls-134" x="56.76" y="12.94" width="0.03" height="5.66"/><rect class="cls-135" x="56.79" y="12.94" width="0.03" height="5.66"/><rect class="cls-136" x="56.82" y="12.94" width="0.03" height="5.66"/><rect class="cls-137" x="56.85" y="12.94" width="0.03" height="5.66"/><rect class="cls-138" x="56.88" y="12.94" width="0.03" height="5.66"/><rect class="cls-139" x="56.9" y="12.94" width="0.03" height="5.66"/><rect class="cls-140" x="56.93" y="12.94" width="0.03" height="5.66"/><rect class="cls-141" x="56.96" y="12.94" width="0.03" height="5.66"/><rect class="cls-142" x="56.99" y="12.94" width="0.03" height="5.66"/><rect class="cls-143" x="57.02" y="12.94" width="0.03" height="5.66"/><rect class="cls-144" x="57.05" y="12.94" width="0.03" height="5.66"/><rect class="cls-145" x="57.08" y="12.94" width="0.03" height="5.66"/><rect class="cls-146" x="57.1" y="12.94" width="0.03" height="5.66"/><rect class="cls-147" x="57.13" y="12.94" width="0.03" height="5.66"/><rect class="cls-148" x="57.16" y="12.94" width="0.03" height="5.66"/><rect class="cls-149" x="57.19" y="12.94" width="0.03" height="5.66"/><rect class="cls-150" x="57.22" y="12.94" width="0.03" height="5.66"/><rect class="cls-151" x="57.25" y="12.94" width="0.03" height="5.66"/><rect class="cls-152" x="57.28" y="12.94" width="0.03" height="5.66"/><rect class="cls-153" x="57.3" y="12.94" width="0.03" height="5.66"/><rect class="cls-154" x="57.33" y="12.94" width="0.03" height="5.66"/><rect class="cls-155" x="57.36" y="12.94" width="0.03" height="5.66"/><rect class="cls-156" x="57.39" y="12.94" width="0.03" height="5.66"/><rect class="cls-157" x="57.42" y="12.94" width="0.03" height="5.66"/><rect class="cls-158" x="57.45" y="12.94" width="0.03" height="5.66"/><rect class="cls-159" x="57.47" y="12.94" width="0.03" height="5.66"/><rect class="cls-160" x="57.5" y="12.94" width="0.03" height="5.66"/><rect class="cls-161" x="57.53" y="12.94" width="0.03" height="5.66"/><rect class="cls-162" x="57.56" y="12.94" width="0.03" height="5.66"/><rect class="cls-163" x="57.59" y="12.94" width="0.03" height="5.66"/><rect class="cls-164" x="57.62" y="12.94" width="0.03" height="5.66"/><rect class="cls-165" x="57.65" y="12.94" width="0.03" height="5.66"/><rect class="cls-166" x="57.67" y="12.94" width="0.03" height="5.66"/><rect class="cls-167" x="57.7" y="12.94" width="0.03" height="5.66"/><rect class="cls-168" x="57.73" y="12.94" width="0.03" height="5.66"/><rect class="cls-169" x="57.76" y="12.94" width="0.03" height="5.66"/><rect class="cls-170" x="57.79" y="12.94" width="0.03" height="5.66"/><rect class="cls-171" x="57.82" y="12.94" width="0.03" height="5.66"/><rect class="cls-172" x="57.85" y="12.94" width="0.03" height="5.66"/><rect class="cls-173" x="57.87" y="12.94" width="0.03" height="5.66"/><rect class="cls-174" x="57.9" y="12.94" width="0.03" height="5.66"/><rect class="cls-175" x="57.93" y="12.94" width="0.03" height="5.66"/><rect class="cls-176" x="57.96" y="12.94" width="0.03" height="5.66"/><rect class="cls-177" x="57.99" y="12.94" width="0.03" height="5.66"/><rect class="cls-178" x="58.02" y="12.94" width="0.03" height="5.66"/><rect class="cls-179" x="58.05" y="12.94" width="0.03" height="5.66"/><rect class="cls-180" x="58.07" y="12.94" width="0.03" height="5.66"/><rect class="cls-181" x="58.1" y="12.94" width="0.03" height="5.66"/><rect class="cls-182" x="58.13" y="12.94" width="0.03" height="5.66"/><rect class="cls-183" x="58.16" y="12.94" width="0.03" height="5.66"/><rect class="cls-184" x="58.19" y="12.94" width="0.03" height="5.66"/><rect class="cls-185" x="58.22" y="12.94" width="0.03" height="5.66"/><rect class="cls-186" x="58.25" y="12.94" width="0.03" height="5.66"/><rect class="cls-187" x="58.27" y="12.94" width="0.03" height="5.66"/><rect class="cls-188" x="58.3" y="12.94" width="0.03" height="5.66"/><rect class="cls-189" x="58.33" y="12.94" width="0.03" height="5.66"/><rect class="cls-190" x="58.36" y="12.94" width="0.03" height="5.66"/><rect class="cls-191" x="58.39" y="12.94" width="0.03" height="5.66"/><rect class="cls-192" x="58.42" y="12.94" width="0.03" height="5.66"/><rect class="cls-193" x="58.45" y="12.94" width="0.03" height="5.66"/><rect class="cls-194" x="58.47" y="12.94" width="0.03" height="5.66"/><rect class="cls-195" x="58.5" y="12.94" width="0.03" height="5.66"/><rect class="cls-196" x="58.53" y="12.94" width="0.03" height="5.66"/><rect class="cls-197" x="58.56" y="12.94" width="0.03" height="5.66"/><rect class="cls-198" x="58.59" y="12.94" width="0.03" height="5.66"/><rect class="cls-199" x="58.62" y="12.94" width="0.03" height="5.66"/><rect class="cls-200" x="58.64" y="12.94" width="0.03" height="5.66"/><rect class="cls-201" x="58.67" y="12.94" width="0.03" height="5.66"/><rect class="cls-202" x="58.7" y="12.94" width="0.03" height="5.66"/><rect class="cls-203" x="58.73" y="12.94" width="0.03" height="5.66"/><rect class="cls-204" x="58.76" y="12.94" width="0.03" height="5.66"/><rect class="cls-205" x="58.79" y="12.94" width="0.03" height="5.66"/><rect class="cls-206" x="58.82" y="12.94" width="0.03" height="5.66"/><rect class="cls-207" x="58.84" y="12.94" width="0.03" height="5.66"/><rect class="cls-208" x="58.87" y="12.94" width="0.03" height="5.66"/><rect class="cls-209" x="58.9" y="12.94" width="0.03" height="5.66"/><rect class="cls-210" x="58.93" y="12.94" width="0.03" height="5.66"/><rect class="cls-211" x="58.96" y="12.94" width="0.03" height="5.66"/><rect class="cls-212" x="58.99" y="12.94" width="0.03" height="5.66"/><rect class="cls-213" x="59.02" y="12.94" width="0.03" height="5.66"/><rect class="cls-214" x="59.04" y="12.94" width="0.03" height="5.66"/><rect class="cls-215" x="59.07" y="12.94" width="0.03" height="5.66"/><rect class="cls-216" x="59.1" y="12.94" width="0.03" height="5.66"/><rect class="cls-217" x="59.13" y="12.94" width="0.03" height="5.66"/><rect class="cls-218" x="59.16" y="12.94" width="0.03" height="5.66"/><rect class="cls-219" x="59.19" y="12.94" width="0.03" height="5.66"/><rect class="cls-220" x="59.22" y="12.94" width="0.03" height="5.66"/><rect class="cls-221" x="59.24" y="12.94" width="0.03" height="5.66"/><rect class="cls-222" x="59.27" y="12.94" width="0.03" height="5.66"/><rect class="cls-223" x="59.3" y="12.94" width="0.03" height="5.66"/><rect class="cls-224" x="59.33" y="12.94" width="0.03" height="5.66"/><rect class="cls-225" x="59.36" y="12.94" width="0.03" height="5.66"/><rect class="cls-226" x="59.39" y="12.94" width="0.03" height="5.66"/><path class="cls-226" d="M960.22,548.93v0Z" transform="translate(-900.81 -530.32)"/></g><g class="cls-230"><path class="cls-3" d="M950.84,530.32v0Z" transform="translate(-900.81 -530.32)"/><rect class="cls-3" x="50.03" width="0.03" height="8.37"/><rect class="cls-4" x="50.06" width="0.03" height="8.37"/><rect class="cls-5" x="50.09" width="0.03" height="8.37"/><rect class="cls-6" x="50.12" width="0.03" height="8.37"/><rect class="cls-7" x="50.14" width="0.03" height="8.37"/><rect class="cls-8" x="50.17" width="0.03" height="8.37"/><rect class="cls-9" x="50.2" width="0.03" height="8.37"/><rect class="cls-10" x="50.23" width="0.03" height="8.37"/><rect class="cls-11" x="50.26" width="0.03" height="8.37"/><rect class="cls-12" x="50.29" width="0.03" height="8.37"/><rect class="cls-13" x="50.32" width="0.03" height="8.37"/><rect class="cls-14" x="50.35" width="0.03" height="8.37"/><rect class="cls-15" x="50.38" width="0.03" height="8.37"/><rect class="cls-16" x="50.4" width="0.03" height="8.37"/><rect class="cls-17" x="50.43" width="0.03" height="8.37"/><rect class="cls-18" x="50.46" width="0.03" height="8.37"/><rect class="cls-19" x="50.49" width="0.03" height="8.37"/><rect class="cls-20" x="50.52" width="0.03" height="8.37"/><rect class="cls-21" x="50.55" width="0.03" height="8.37"/><rect class="cls-22" x="50.58" width="0.03" height="8.37"/><rect class="cls-23" x="50.61" width="0.03" height="8.37"/><rect class="cls-24" x="50.64" width="0.03" height="8.37"/><rect class="cls-25" x="50.66" width="0.03" height="8.37"/><rect class="cls-26" x="50.69" width="0.03" height="8.37"/><rect class="cls-27" x="50.72" width="0.03" height="8.37"/><rect class="cls-28" x="50.75" width="0.03" height="8.37"/><rect class="cls-29" x="50.78" width="0.03" height="8.37"/><rect class="cls-30" x="50.81" width="0.03" height="8.37"/><rect class="cls-31" x="50.84" width="0.03" height="8.37"/><rect class="cls-32" x="50.87" width="0.03" height="8.37"/><rect class="cls-33" x="50.89" width="0.03" height="8.37"/><rect class="cls-34" x="50.92" width="0.03" height="8.37"/><rect class="cls-35" x="50.95" width="0.03" height="8.37"/><rect class="cls-36" x="50.98" width="0.03" height="8.37"/><rect class="cls-37" x="51.01" width="0.03" height="8.37"/><rect class="cls-38" x="51.04" width="0.03" height="8.37"/><rect class="cls-39" x="51.07" width="0.03" height="8.37"/><rect class="cls-40" x="51.1" width="0.03" height="8.37"/><rect class="cls-41" x="51.13" width="0.03" height="8.37"/><rect class="cls-42" x="51.15" width="0.03" height="8.37"/><rect class="cls-43" x="51.18" width="0.03" height="8.37"/><rect class="cls-44" x="51.21" width="0.03" height="8.37"/><rect class="cls-45" x="51.24" width="0.03" height="8.37"/><rect class="cls-46" x="51.27" width="0.03" height="8.37"/><rect class="cls-47" x="51.3" width="0.03" height="8.37"/><rect class="cls-48" x="51.33" width="0.03" height="8.37"/><rect class="cls-49" x="51.36" width="0.03" height="8.37"/><rect class="cls-50" x="51.39" width="0.03" height="8.37"/><rect class="cls-51" x="51.41" width="0.03" height="8.37"/><rect class="cls-52" x="51.44" width="0.03" height="8.37"/><rect class="cls-53" x="51.47" width="0.03" height="8.37"/><rect class="cls-54" x="51.5" width="0.03" height="8.37"/><rect class="cls-55" x="51.53" width="0.03" height="8.37"/><rect class="cls-56" x="51.56" width="0.03" height="8.37"/><rect class="cls-57" x="51.59" width="0.03" height="8.37"/><rect class="cls-58" x="51.62" width="0.03" height="8.37"/><rect class="cls-59" x="51.65" width="0.03" height="8.37"/><rect class="cls-60" x="51.67" width="0.03" height="8.37"/><rect class="cls-61" x="51.7" width="0.03" height="8.37"/><rect class="cls-62" x="51.73" width="0.03" height="8.37"/><rect class="cls-63" x="51.76" width="0.03" height="8.37"/><rect class="cls-64" x="51.79" width="0.03" height="8.37"/><rect class="cls-65" x="51.82" width="0.03" height="8.37"/><rect class="cls-66" x="51.85" width="0.03" height="8.37"/><rect class="cls-67" x="51.88" width="0.03" height="8.37"/><rect class="cls-68" x="51.91" width="0.03" height="8.37"/><rect class="cls-69" x="51.93" width="0.03" height="8.37"/><rect class="cls-70" x="51.96" width="0.03" height="8.37"/><rect class="cls-71" x="51.99" width="0.03" height="8.37"/><rect class="cls-72" x="52.02" width="0.03" height="8.37"/><rect class="cls-73" x="52.05" width="0.03" height="8.37"/><rect class="cls-74" x="52.08" width="0.03" height="8.37"/><rect class="cls-75" x="52.11" width="0.03" height="8.37"/><rect class="cls-76" x="52.14" width="0.03" height="8.37"/><rect class="cls-77" x="52.16" width="0.03" height="8.37"/><rect class="cls-78" x="52.19" width="0.03" height="8.37"/><rect class="cls-79" x="52.22" width="0.03" height="8.37"/><rect class="cls-80" x="52.25" width="0.03" height="8.37"/><rect class="cls-81" x="52.28" width="0.03" height="8.37"/><rect class="cls-82" x="52.31" width="0.03" height="8.37"/><rect class="cls-83" x="52.34" width="0.03" height="8.37"/><rect class="cls-84" x="52.37" width="0.03" height="8.37"/><rect class="cls-85" x="52.4" width="0.03" height="8.37"/><rect class="cls-86" x="52.42" width="0.03" height="8.37"/><rect class="cls-87" x="52.45" width="0.03" height="8.37"/><rect class="cls-88" x="52.48" width="0.03" height="8.37"/><rect class="cls-89" x="52.51" width="0.03" height="8.37"/><rect class="cls-90" x="52.54" width="0.03" height="8.37"/><rect class="cls-91" x="52.57" width="0.03" height="8.37"/><rect class="cls-92" x="52.6" width="0.03" height="8.37"/><rect class="cls-93" x="52.63" width="0.03" height="8.37"/><rect class="cls-94" x="52.66" width="0.03" height="8.37"/><rect class="cls-95" x="52.68" width="0.03" height="8.37"/><rect class="cls-96" x="52.71" width="0.03" height="8.37"/><rect class="cls-97" x="52.74" width="0.03" height="8.37"/><rect class="cls-98" x="52.77" width="0.03" height="8.37"/><rect class="cls-99" x="52.8" width="0.03" height="8.37"/><rect class="cls-100" x="52.83" width="0.03" height="8.37"/><rect class="cls-101" x="52.86" width="0.03" height="8.37"/><rect class="cls-102" x="52.89" width="0.03" height="8.37"/><rect class="cls-103" x="52.92" width="0.03" height="8.37"/><rect class="cls-104" x="52.94" width="0.03" height="8.37"/><rect class="cls-105" x="52.97" width="0.03" height="8.37"/><rect class="cls-106" x="53" width="0.03" height="8.37"/><rect class="cls-107" x="53.03" width="0.03" height="8.37"/><rect class="cls-108" x="53.06" width="0.03" height="8.37"/><rect class="cls-109" x="53.09" width="0.03" height="8.37"/><rect class="cls-110" x="53.12" width="0.03" height="8.37"/><rect class="cls-111" x="53.15" width="0.03" height="8.37"/><rect class="cls-112" x="53.18" width="0.03" height="8.37"/><rect class="cls-113" x="53.2" width="0.03" height="8.37"/><rect class="cls-114" x="53.23" width="0.03" height="8.37"/><rect class="cls-115" x="53.26" width="0.03" height="8.37"/><rect class="cls-116" x="53.29" width="0.03" height="8.37"/><rect class="cls-117" x="53.32" width="0.03" height="8.37"/><rect class="cls-118" x="53.35" width="0.03" height="8.37"/><rect class="cls-119" x="53.38" width="0.03" height="8.37"/><rect class="cls-120" x="53.41" width="0.03" height="8.37"/><rect class="cls-121" x="53.43" width="0.03" height="8.37"/><rect class="cls-122" x="53.46" width="0.03" height="8.37"/><rect class="cls-123" x="53.49" width="0.03" height="8.37"/><rect class="cls-124" x="53.52" width="0.03" height="8.37"/><rect class="cls-125" x="53.55" width="0.03" height="8.37"/><rect class="cls-126" x="53.58" width="0.03" height="8.37"/><rect class="cls-127" x="53.61" width="0.03" height="8.37"/><rect class="cls-128" x="53.64" width="0.03" height="8.37"/><rect class="cls-129" x="53.67" width="0.03" height="8.37"/><rect class="cls-130" x="53.69" width="0.03" height="8.37"/><rect class="cls-131" x="53.72" width="0.03" height="8.37"/><rect class="cls-132" x="53.75" width="0.03" height="8.37"/><rect class="cls-133" x="53.78" width="0.03" height="8.37"/><rect class="cls-134" x="53.81" width="0.03" height="8.37"/><rect class="cls-135" x="53.84" width="0.03" height="8.37"/><rect class="cls-136" x="53.87" width="0.03" height="8.37"/><rect class="cls-137" x="53.9" width="0.03" height="8.37"/><rect class="cls-138" x="53.93" width="0.03" height="8.37"/><rect class="cls-139" x="53.95" width="0.03" height="8.37"/><rect class="cls-140" x="53.98" width="0.03" height="8.37"/><rect class="cls-141" x="54.01" width="0.03" height="8.37"/><rect class="cls-142" x="54.04" width="0.03" height="8.37"/><rect class="cls-143" x="54.07" width="0.03" height="8.37"/><rect class="cls-144" x="54.1" width="0.03" height="8.37"/><rect class="cls-145" x="54.13" width="0.03" height="8.37"/><rect class="cls-146" x="54.16" width="0.03" height="8.37"/><rect class="cls-147" x="54.19" width="0.03" height="8.37"/><rect class="cls-148" x="54.21" width="0.03" height="8.37"/><rect class="cls-149" x="54.24" width="0.03" height="8.37"/><rect class="cls-150" x="54.27" width="0.03" height="8.37"/><rect class="cls-151" x="54.3" width="0.03" height="8.37"/><rect class="cls-152" x="54.33" width="0.03" height="8.37"/><rect class="cls-153" x="54.36" width="0.03" height="8.37"/><rect class="cls-154" x="54.39" width="0.03" height="8.37"/><rect class="cls-155" x="54.42" width="0.03" height="8.37"/><rect class="cls-156" x="54.44" width="0.03" height="8.37"/><rect class="cls-157" x="54.47" width="0.03" height="8.37"/><rect class="cls-158" x="54.5" width="0.03" height="8.37"/><rect class="cls-159" x="54.53" width="0.03" height="8.37"/><rect class="cls-160" x="54.56" width="0.03" height="8.37"/><rect class="cls-161" x="54.59" width="0.03" height="8.37"/><rect class="cls-162" x="54.62" width="0.03" height="8.37"/><rect class="cls-163" x="54.65" width="0.03" height="8.37"/><rect class="cls-164" x="54.68" width="0.03" height="8.37"/><rect class="cls-165" x="54.7" width="0.03" height="8.37"/><rect class="cls-166" x="54.73" width="0.03" height="8.37"/><rect class="cls-167" x="54.76" width="0.03" height="8.37"/><rect class="cls-168" x="54.79" width="0.03" height="8.37"/><rect class="cls-169" x="54.82" width="0.03" height="8.37"/><rect class="cls-170" x="54.85" width="0.03" height="8.37"/><rect class="cls-171" x="54.88" width="0.03" height="8.37"/><rect class="cls-172" x="54.91" width="0.03" height="8.37"/><rect class="cls-173" x="54.94" width="0.03" height="8.37"/><rect class="cls-174" x="54.96" width="0.03" height="8.37"/><rect class="cls-175" x="54.99" width="0.03" height="8.37"/><rect class="cls-176" x="55.02" width="0.03" height="8.37"/><rect class="cls-177" x="55.05" width="0.03" height="8.37"/><rect class="cls-178" x="55.08" width="0.03" height="8.37"/><rect class="cls-179" x="55.11" width="0.03" height="8.37"/><rect class="cls-180" x="55.14" width="0.03" height="8.37"/><rect class="cls-181" x="55.17" width="0.03" height="8.37"/><rect class="cls-182" x="55.2" width="0.03" height="8.37"/><rect class="cls-183" x="55.22" width="0.03" height="8.37"/><rect class="cls-184" x="55.25" width="0.03" height="8.37"/><rect class="cls-185" x="55.28" width="0.03" height="8.37"/><rect class="cls-186" x="55.31" width="0.03" height="8.37"/><rect class="cls-187" x="55.34" width="0.03" height="8.37"/><rect class="cls-188" x="55.37" width="0.03" height="8.37"/><rect class="cls-189" x="55.4" width="0.03" height="8.37"/><rect class="cls-190" x="55.43" width="0.03" height="8.37"/><rect class="cls-191" x="55.46" width="0.03" height="8.37"/><rect class="cls-192" x="55.48" width="0.03" height="8.37"/><rect class="cls-193" x="55.51" width="0.03" height="8.37"/><rect class="cls-194" x="55.54" width="0.03" height="8.37"/><rect class="cls-195" x="55.57" width="0.03" height="8.37"/><rect class="cls-196" x="55.6" width="0.03" height="8.37"/><rect class="cls-197" x="55.63" width="0.03" height="8.37"/><rect class="cls-198" x="55.66" width="0.03" height="8.37"/><rect class="cls-199" x="55.69" width="0.03" height="8.37"/><rect class="cls-200" x="55.71" width="0.03" height="8.37"/><rect class="cls-201" x="55.74" width="0.03" height="8.37"/><rect class="cls-202" x="55.77" width="0.03" height="8.37"/><rect class="cls-203" x="55.8" width="0.03" height="8.37"/><rect class="cls-204" x="55.83" width="0.03" height="8.37"/><rect class="cls-205" x="55.86" width="0.03" height="8.37"/><rect class="cls-206" x="55.89" width="0.03" height="8.37"/><rect class="cls-207" x="55.92" width="0.03" height="8.37"/><rect class="cls-208" x="55.95" width="0.03" height="8.37"/><rect class="cls-209" x="55.97" width="0.03" height="8.37"/><rect class="cls-210" x="56" width="0.03" height="8.37"/><rect class="cls-211" x="56.03" width="0.03" height="8.37"/><rect class="cls-212" x="56.06" width="0.03" height="8.37"/><rect class="cls-213" x="56.09" width="0.03" height="8.37"/><rect class="cls-214" x="56.12" width="0.03" height="8.37"/><rect class="cls-215" x="56.15" width="0.03" height="8.37"/><rect class="cls-216" x="56.18" width="0.03" height="8.37"/><rect class="cls-217" x="56.21" width="0.03" height="8.37"/><rect class="cls-218" x="56.23" width="0.03" height="8.37"/><rect class="cls-219" x="56.26" width="0.03" height="8.37"/><rect class="cls-220" x="56.29" width="0.03" height="8.37"/><rect class="cls-221" x="56.32" width="0.03" height="8.37"/><rect class="cls-222" x="56.35" width="0.03" height="8.37"/><rect class="cls-223" x="56.38" width="0.03" height="8.37"/><rect class="cls-224" x="56.41" width="0.03" height="8.37"/><rect class="cls-225" x="56.44" width="0.03" height="8.37"/><rect class="cls-226" x="56.47" width="0.03" height="8.37"/><path class="cls-226" d="M957.3,538.69v0Z" transform="translate(-900.81 -530.32)"/></g><path class="cls-3" d="M900.81,548.29v-14.6H905v5.49h4.63v-5.49h4.15v14.6h-4.15v-5.46H905v5.46Z" transform="translate(-900.81 -530.32)"/><path class="cls-3" d="M915.53,548.29v-14.6h8.18v3.63h-4v1.79h3.41v3.61h-3.41v1.94h4.2v3.63Z" transform="translate(-900.81 -530.32)"/><path class="cls-3" d="M925.36,548.29v-14.6h5.16a5.79,5.79,0,0,1,4,1.21,4.33,4.33,0,0,1,1.35,3.4,5.11,5.11,0,0,1-.5,2.24,3.93,3.93,0,0,1-1.42,1.62l3.34,6.13h-4.57l-2.46-5.15h-.75v5.15Zm4.16-8.53h.68a1.49,1.49,0,0,0,1.07-.36,1.27,1.27,0,0,0,.37-.95c0-.85-.48-1.28-1.44-1.28h-.68Z" transform="translate(-900.81 -530.32)"/><path class="cls-3" d="M937.67,548.29v-14.6h8.18v3.63h-4v1.79h3.4v3.61h-3.4v1.94H946v3.63Z" transform="translate(-900.81 -530.32)"/><path class="cls-3" d="M969.19,548.29v-14.6h4.23l4.69,8.28v-8.28h4.09v14.6h-4.13l-4.82-8.15v8.15Z" transform="translate(-900.81 -530.32)"/><path class="cls-3" d="M996.81,546.4a8.64,8.64,0,0,1-11.43,0,7.83,7.83,0,0,1,0-10.82,8.64,8.64,0,0,1,11.43,0,7.83,7.83,0,0,1,0,10.82Zm-3.15-8.12a3.63,3.63,0,0,0-5.13,0,3.84,3.84,0,0,0-1,2.69,3.88,3.88,0,0,0,1,2.72,3.59,3.59,0,0,0,5.13,0,3.88,3.88,0,0,0,1-2.72A3.84,3.84,0,0,0,993.66,538.28Z" transform="translate(-900.81 -530.32)"/><path class="cls-3" d="M1011.07,548.29l-2.09-8.38-2.09,8.38h-4.71l-3.78-14.6h4.45l1.94,9.7,2.33-9.7h3.72l2.33,9.7,1.94-9.7h4.45l-3.8,14.6Z" transform="translate(-900.81 -530.32)"/></svg>